{"glyphs":{"0":{"ha":833,"x_min":0,"x_max":0,"o":"m 417 972 b 61 479 231 972 61 740 b 417 -14 61 218 231 -14 b 772 479 603 -14 772 218 b 417 972 772 740 603 972 z m 417 46 b 199 479 292 46 199 258 b 417 913 199 701 292 913 b 635 479 542 913 635 701 b 417 46 635 258 542 46 z "},"1":{"ha":600,"x_min":0,"x_max":0,"o":"m 376 972 l 14 789 l 251 789 l 251 61 l 69 61 l 69 0 l 558 0 l 558 61 l 376 61 z "},"2":{"ha":732,"x_min":0,"x_max":0,"o":"m 614 0 l 714 125 l 229 125 l 229 146 b 636 707 446 342 636 517 b 379 972 636 856 535 972 b 47 672 211 972 90 843 b 313 853 113 771 186 853 b 507 654 439 853 507 772 b 17 0 507 469 260 239 z "},"3":{"ha":681,"x_min":0,"x_max":0,"o":"m 268 40 l 107 179 b 47 92 69 163 47 125 b 203 -14 47 31 110 -14 b 636 332 424 -14 636 150 b 368 553 636 456 525 524 l 368 569 b 581 797 478 622 581 686 b 369 972 581 894 494 972 b 72 739 217 972 106 853 b 304 867 126 804 210 867 b 449 743 390 867 449 824 b 140 479 449 631 325 578 b 508 268 363 479 508 404 b 268 40 508 139 378 56 z "},"4":{"ha":879,"x_min":0,"x_max":0,"o":"m 731 0 l 731 61 l 588 61 l 588 311 l 808 311 l 865 381 l 588 381 l 588 972 l 31 311 l 468 311 l 468 61 l 325 61 l 325 0 z m 468 381 l 160 381 l 468 743 z "},"5":{"ha":693,"x_min":0,"x_max":0,"o":"m 193 619 l 224 833 l 554 833 l 618 958 l 194 958 l 125 511 b 501 290 382 536 501 447 b 260 43 501 133 371 60 l 101 179 b 42 92 65 163 42 125 b 193 -14 42 31 101 -14 b 617 354 414 -14 617 149 b 193 619 617 542 422 642 z "},"6":{"ha":785,"x_min":0,"x_max":0,"o":"m 403 -14 b 713 297 581 -14 713 128 b 440 572 713 446 603 572 b 263 511 364 572 311 544 l 235 511 b 763 972 301 728 490 879 b 69 364 342 953 69 660 b 403 -14 69 151 215 -14 z m 208 328 b 221 458 208 374 213 417 b 347 496 250 476 296 496 b 585 256 476 496 585 404 b 408 42 585 131 513 42 b 208 328 286 42 208 165 z "},"7":{"ha":729,"x_min":0,"x_max":0,"o":"m 294 0 l 710 958 l 81 958 l 17 833 l 588 833 l 193 0 z "},"8":{"ha":771,"x_min":0,"x_max":0,"o":"m 708 256 b 497 503 708 371 607 440 l 497 526 b 682 738 603 571 682 631 b 389 972 682 874 553 972 b 103 715 228 972 103 857 b 278 489 103 611 183 546 l 278 460 b 63 236 156 421 63 350 b 386 -14 63 99 210 -14 b 708 256 568 -14 708 121 z m 219 757 b 389 918 219 847 283 918 b 563 744 494 918 563 847 b 447 531 563 650 515 583 b 219 757 331 594 219 656 z m 188 239 b 329 458 188 339 233 403 b 579 221 453 390 579 329 b 392 39 579 118 504 39 b 188 239 283 39 188 121 z "},"9":{"ha":785,"x_min":0,"x_max":0,"o":"m 382 972 b 72 661 204 972 72 831 b 344 386 72 513 182 386 b 522 447 421 386 474 414 l 550 447 b 22 -14 483 231 294 79 b 715 594 443 6 715 299 b 382 972 715 807 569 972 z m 576 631 b 564 500 576 585 572 542 b 438 463 535 482 489 463 b 200 703 308 463 200 554 b 376 917 200 828 272 917 b 576 631 499 917 576 793 z "}," ":{"ha":278,"x_min":0,"x_max":0,"o":""}," ":{"ha":278,"x_min":0,"x_max":0,"o":""},"A":{"ha":1075,"x_min":0,"x_max":0,"o":"m 429 958 l 471 853 l 143 61 l 28 61 l 28 0 l 386 0 l 386 61 l 215 61 l 338 363 l 668 363 l 789 61 l 618 61 l 618 0 l 1047 0 l 1047 61 l 932 61 l 565 958 z m 363 424 l 504 772 l 643 424 z "},"B":{"ha":919,"x_min":0,"x_max":0,"o":"m 47 958 l 47 897 l 190 897 l 190 61 l 47 61 l 47 0 l 469 0 b 851 268 696 0 851 110 b 543 506 851 422 675 497 b 781 728 675 526 781 615 b 415 958 781 883 635 958 z m 401 897 b 646 714 544 897 646 844 b 403 521 646 589 532 521 l 324 521 l 324 897 z m 324 61 l 324 463 l 446 463 b 713 269 579 463 713 413 b 457 61 713 129 606 61 z "},"C":{"ha":947,"x_min":0,"x_max":0,"o":"m 64 457 b 532 -14 64 168 285 -14 b 906 228 717 -14 858 97 b 590 92 821 142 724 92 b 196 518 388 92 196 243 b 532 906 196 753 360 906 b 878 660 699 906 796 790 l 878 972 l 785 900 b 546 972 729 938 653 972 b 64 457 310 972 64 767 z "},"D":{"ha":1096,"x_min":0,"x_max":0,"o":"m 410 958 l 47 958 l 47 897 l 190 897 l 190 61 l 47 61 l 47 0 l 424 0 b 1032 506 764 0 1032 200 b 410 958 1032 792 769 958 z m 399 897 b 882 504 699 897 882 754 b 401 61 882 239 700 61 l 324 61 l 324 897 z "},"E":{"ha":908,"x_min":0,"x_max":0,"o":"m 528 521 l 324 521 l 324 897 l 644 897 l 788 704 l 788 999 l 713 958 l 47 958 l 47 897 l 190 897 l 190 61 l 47 61 l 47 0 l 811 0 l 869 296 l 672 61 l 324 61 l 324 460 l 528 460 l 638 310 l 638 669 z "},"F":{"ha":847,"x_min":0,"x_max":0,"o":"m 528 521 l 324 521 l 324 897 l 644 897 l 788 704 l 788 999 l 713 958 l 47 958 l 47 897 l 190 897 l 190 61 l 47 61 l 47 0 l 501 0 l 501 61 l 324 61 l 324 460 l 528 460 l 638 310 l 638 669 z "},"G":{"ha":1075,"x_min":0,"x_max":0,"o":"m 775 363 l 775 75 b 638 56 736 61 686 56 b 219 503 424 56 219 224 b 557 906 219 747 368 906 b 921 660 732 906 838 792 l 921 972 l 824 900 b 561 972 764 938 674 972 b 71 467 325 972 71 772 b 590 -14 71 165 315 -14 b 997 133 763 -14 910 42 l 906 133 l 906 363 l 1035 363 l 1035 424 l 618 424 l 618 363 z "},"H":{"ha":1194,"x_min":0,"x_max":0,"o":"m 47 958 l 47 897 l 190 897 l 190 61 l 47 61 l 47 0 l 467 0 l 467 61 l 324 61 l 324 460 l 871 460 l 871 61 l 728 61 l 728 0 l 1147 0 l 1147 61 l 1004 61 l 1004 897 l 1147 897 l 1147 958 l 728 958 l 728 897 l 871 897 l 871 521 l 324 521 l 324 897 l 467 897 l 467 958 z "},"I":{"ha":514,"x_min":0,"x_max":0,"o":"m 47 958 l 47 897 l 190 897 l 190 61 l 47 61 l 47 0 l 467 0 l 467 61 l 324 61 l 324 897 l 467 897 l 467 958 z "},"J":{"ha":514,"x_min":0,"x_max":0,"o":"m 190 67 b 90 -214 190 -68 140 -168 l -58 -158 b -103 -239 -89 -176 -103 -210 b -17 -319 -103 -283 -69 -319 b 324 46 100 -319 271 -106 l 324 897 l 467 897 l 467 958 l 47 958 l 47 897 l 190 897 z "},"K":{"ha":1006,"x_min":0,"x_max":0,"o":"m 47 958 l 47 897 l 190 897 l 190 61 l 47 61 l 47 0 l 467 0 l 467 61 l 324 61 l 324 515 l 822 0 l 1000 0 l 465 542 l 851 897 l 979 897 l 979 958 l 614 958 l 614 897 l 761 897 l 375 536 l 324 536 l 324 897 l 467 897 l 467 958 z "},"L":{"ha":876,"x_min":0,"x_max":0,"o":"m 190 897 l 190 61 l 47 61 l 47 0 l 797 0 l 856 296 l 658 61 l 324 61 l 324 897 l 467 897 l 467 958 l 47 958 l 47 897 z "},"M":{"ha":1336,"x_min":0,"x_max":0,"o":"m 1044 61 l 888 61 l 888 0 l 1303 0 l 1303 61 l 1174 61 l 1103 897 l 1229 897 l 1229 958 l 924 958 l 668 221 l 421 958 l 107 958 l 107 897 l 233 897 l 163 61 l 33 61 l 33 0 l 392 0 l 392 61 l 235 61 l 299 904 l 638 -57 l 971 904 z "},"N":{"ha":1075,"x_min":0,"x_max":0,"o":"m 383 0 l 383 61 l 240 61 l 240 714 l 904 -46 l 904 897 l 1047 897 l 1047 958 l 689 958 l 689 897 l 832 897 l 832 217 l 196 958 l 26 958 l 168 796 l 168 61 l 25 61 l 25 0 z "},"O":{"ha":1122,"x_min":0,"x_max":0,"o":"m 1058 479 b 561 972 1058 764 818 972 b 64 479 304 972 64 764 b 561 -14 64 194 304 -14 b 1058 479 818 -14 1058 194 z m 214 479 b 561 907 214 731 386 907 b 908 479 736 907 908 731 b 561 50 908 228 736 50 b 214 479 386 50 214 228 z "},"P":{"ha":874,"x_min":0,"x_max":0,"o":"m 47 897 l 190 897 l 190 61 l 47 61 l 47 0 l 501 0 l 501 61 l 324 61 l 324 897 l 426 897 b 690 685 581 897 690 833 b 403 472 690 554 606 472 l 510 421 b 826 681 660 421 826 511 b 428 958 826 869 661 958 l 47 958 z "},"Q":{"ha":1122,"x_min":0,"x_max":0,"o":"m 1058 479 b 561 972 1058 764 818 972 b 64 479 304 972 64 764 b 368 22 64 265 197 107 l 1021 -303 l 1281 -254 l 635 -26 l 635 4 b 1058 479 858 28 1058 222 z m 214 479 b 561 907 214 731 386 907 b 908 479 736 907 908 731 b 561 50 908 228 736 50 b 214 479 386 50 214 228 z "},"R":{"ha":976,"x_min":0,"x_max":0,"o":"m 467 61 l 324 61 l 324 453 l 415 453 l 810 0 l 982 0 l 560 465 b 825 713 708 494 825 576 b 426 958 825 886 657 958 l 47 958 l 47 897 l 190 897 l 190 61 l 47 61 l 47 0 l 467 0 z m 324 897 l 425 897 b 685 707 576 897 685 840 b 425 510 685 574 576 510 l 324 510 z "},"S":{"ha":771,"x_min":0,"x_max":0,"o":"m 365 906 b 660 663 496 906 588 793 l 660 975 l 564 903 b 371 972 525 939 451 972 b 94 706 210 972 94 850 b 571 229 94 408 571 485 b 381 54 571 117 485 54 b 69 319 243 54 139 153 l 69 88 b 350 -14 136 26 249 -14 b 694 285 540 -14 694 108 b 206 753 694 579 206 533 b 365 906 206 842 271 906 z "},"T":{"ha":1006,"x_min":0,"x_max":0,"o":"m 199 897 l 436 897 l 436 61 l 279 61 l 279 0 l 726 0 l 726 61 l 569 61 l 569 897 l 807 897 l 950 690 l 950 999 l 875 958 l 131 958 l 56 999 l 56 690 z "},"U":{"ha":1083,"x_min":0,"x_max":0,"o":"m 846 374 b 574 74 846 175 738 74 b 299 375 410 74 299 175 l 299 897 l 442 897 l 442 958 l 22 958 l 22 897 l 165 897 l 165 349 b 550 -14 165 96 374 -14 b 918 353 747 -14 918 121 l 918 897 l 1061 897 l 1061 958 l 703 958 l 703 897 l 846 897 z "},"V":{"ha":1047,"x_min":0,"x_max":0,"o":"m 286 897 l 457 897 l 457 958 l 28 958 l 28 897 l 143 897 l 524 -57 l 904 897 l 1019 897 l 1019 958 l 658 958 l 658 897 l 829 897 l 554 188 z "},"W":{"ha":1492,"x_min":0,"x_max":0,"o":"m 281 897 l 424 897 l 424 958 l 28 958 l 28 897 l 143 897 l 510 -57 l 756 582 l 982 -57 l 1349 897 l 1464 897 l 1464 958 l 1106 958 l 1106 897 l 1276 897 l 1015 206 l 779 897 l 950 897 l 950 958 l 542 958 l 542 897 l 643 897 l 724 669 l 546 203 z "},"X":{"ha":1124,"x_min":0,"x_max":0,"o":"m 67 958 l 67 897 l 204 897 l 486 503 l 171 61 l 28 61 l 28 0 l 399 0 l 399 61 l 256 61 l 528 443 l 801 61 l 658 61 l 658 0 l 1096 0 l 1096 61 l 953 61 l 615 533 l 875 897 l 1013 897 l 1013 958 l 642 958 l 642 897 l 790 897 l 574 593 l 356 897 l 504 897 l 504 958 z "},"Y":{"ha":1047,"x_min":0,"x_max":0,"o":"m 747 0 l 747 61 l 590 61 l 590 463 l 904 897 l 1019 897 l 1019 958 l 654 958 l 654 897 l 825 897 l 557 521 l 299 897 l 469 897 l 469 958 l 28 958 l 28 897 l 143 897 l 457 463 l 457 61 l 300 61 l 300 0 z "},"Z":{"ha":913,"x_min":0,"x_max":0,"o":"m 679 61 l 229 61 l 851 958 l 182 958 l 107 999 l 107 690 l 250 897 l 664 897 l 38 0 l 818 0 l 876 296 z "},"Á":{"ha":1075,"x_min":0,"x_max":0,"o":"m 429 958 l 471 853 l 143 61 l 28 61 l 28 0 l 386 0 l 386 61 l 215 61 l 338 363 l 668 363 l 789 61 l 618 61 l 618 0 l 1047 0 l 1047 61 l 932 61 l 565 958 z m 363 424 l 504 772 l 643 424 z m 747 1176 l 610 1244 l 364 1026 z "},"Ă":{"ha":1075,"x_min":0,"x_max":0,"o":"m 429 958 l 471 853 l 143 61 l 28 61 l 28 0 l 386 0 l 386 61 l 215 61 l 338 363 l 668 363 l 789 61 l 618 61 l 618 0 l 1047 0 l 1047 61 l 932 61 l 565 958 z m 363 424 l 504 772 l 643 424 z m 514 1026 b 738 1283 625 1026 738 1122 b 514 1118 682 1175 611 1118 b 290 1283 417 1118 346 1175 b 514 1026 290 1122 403 1026 z "},"Â":{"ha":1075,"x_min":0,"x_max":0,"o":"m 429 958 l 471 853 l 143 61 l 28 61 l 28 0 l 386 0 l 386 61 l 215 61 l 338 363 l 668 363 l 789 61 l 618 61 l 618 0 l 1047 0 l 1047 61 l 932 61 l 565 958 z m 363 424 l 504 772 l 643 424 z m 464 1254 l 281 1014 l 525 1168 l 769 1014 l 586 1254 z "},"Ä":{"ha":1075,"x_min":0,"x_max":0,"o":"m 429 958 l 471 853 l 143 61 l 28 61 l 28 0 l 386 0 l 386 61 l 215 61 l 338 363 l 668 363 l 789 61 l 618 61 l 618 0 l 1047 0 l 1047 61 l 932 61 l 565 958 z m 363 424 l 504 772 l 643 424 z m 660 1047 b 739 1124 704 1047 739 1081 b 660 1200 739 1167 704 1200 b 582 1124 615 1200 582 1167 b 660 1047 582 1081 615 1047 z m 389 1047 b 468 1124 433 1047 468 1081 b 389 1200 468 1167 433 1200 b 311 1124 344 1200 311 1167 b 389 1047 311 1081 344 1047 z "},"À":{"ha":1075,"x_min":0,"x_max":0,"o":"m 429 958 l 471 853 l 143 61 l 28 61 l 28 0 l 386 0 l 386 61 l 215 61 l 338 363 l 668 363 l 789 61 l 618 61 l 618 0 l 1047 0 l 1047 61 l 932 61 l 565 958 z m 363 424 l 504 772 l 643 424 z m 285 1176 l 668 1026 l 422 1244 z "},"Ā":{"ha":1075,"x_min":0,"x_max":0,"o":"m 429 958 l 471 853 l 143 61 l 28 61 l 28 0 l 386 0 l 386 61 l 215 61 l 338 363 l 668 363 l 789 61 l 618 61 l 618 0 l 1047 0 l 1047 61 l 932 61 l 565 958 z m 363 424 l 504 772 l 643 424 z m 338 1143 l 271 1061 l 704 1061 l 771 1143 z "},"Ą":{"ha":1075,"x_min":0,"x_max":0,"o":"m 429 958 l 471 853 l 143 61 l 28 61 l 28 0 l 386 0 l 386 61 l 215 61 l 338 363 l 668 363 l 789 61 l 618 61 l 618 8 b 419 -262 514 -67 419 -178 b 528 -371 419 -333 468 -371 b 661 -297 578 -371 614 -342 l 599 -297 b 504 -218 533 -297 504 -272 b 644 0 504 -150 571 -61 l 1047 0 l 1047 61 l 932 61 l 565 958 z m 363 424 l 504 772 l 643 424 z "},"Å":{"ha":1075,"x_min":0,"x_max":0,"o":"m 429 958 l 471 853 l 143 61 l 28 61 l 28 0 l 386 0 l 386 61 l 215 61 l 338 363 l 668 363 l 789 61 l 618 61 l 618 0 l 1047 0 l 1047 61 l 932 61 l 565 958 z m 363 424 l 504 772 l 643 424 z m 513 1307 b 360 1154 429 1307 360 1238 b 513 1003 360 1072 429 1003 b 665 1154 596 1003 665 1072 b 513 1307 665 1238 596 1307 z m 513 1250 b 608 1154 571 1250 608 1213 b 513 1060 608 1097 571 1060 b 417 1154 454 1060 417 1097 b 513 1250 417 1213 454 1250 z "},"Ã":{"ha":1075,"x_min":0,"x_max":0,"o":"m 429 958 l 471 853 l 143 61 l 28 61 l 28 0 l 386 0 l 386 61 l 215 61 l 338 363 l 668 363 l 789 61 l 618 61 l 618 0 l 1047 0 l 1047 61 l 932 61 l 565 958 z m 363 424 l 504 772 l 643 424 z m 700 1065 l 804 1293 b 631 1167 739 1224 675 1167 l 388 1232 l 283 1004 b 457 1131 349 1074 413 1131 z "},"Æ":{"ha":1464,"x_min":0,"x_max":0,"o":"m 1083 521 l 879 521 l 879 897 l 1200 897 l 1343 704 l 1343 999 l 1268 958 l 533 958 l 533 897 l 676 897 l 143 61 l 28 61 l 28 0 l 393 0 l 393 61 l 222 61 l 413 363 l 746 363 l 746 61 l 603 61 l 603 0 l 1367 0 l 1425 296 l 1228 61 l 879 61 l 879 460 l 1083 460 l 1193 310 l 1193 669 z m 451 424 l 746 890 l 746 424 z "},"Ǽ":{"ha":1464,"x_min":0,"x_max":0,"o":"m 1083 521 l 879 521 l 879 897 l 1200 897 l 1343 704 l 1343 999 l 1268 958 l 533 958 l 533 897 l 676 897 l 143 61 l 28 61 l 28 0 l 393 0 l 393 61 l 222 61 l 413 363 l 746 363 l 746 61 l 603 61 l 603 0 l 1367 0 l 1425 296 l 1228 61 l 879 61 l 879 460 l 1083 460 l 1193 310 l 1193 669 z m 451 424 l 746 890 l 746 424 z m 1217 1176 l 1079 1244 l 833 1026 z "},"Ć":{"ha":947,"x_min":0,"x_max":0,"o":"m 64 457 b 532 -14 64 168 285 -14 b 906 228 717 -14 858 97 b 590 92 821 142 724 92 b 196 518 388 92 196 243 b 532 906 196 753 360 906 b 878 660 699 906 796 790 l 878 972 l 785 900 b 546 972 729 938 653 972 b 64 457 310 972 64 767 z m 807 1176 l 669 1244 l 424 1026 z "},"Č":{"ha":947,"x_min":0,"x_max":0,"o":"m 64 457 b 532 -14 64 168 285 -14 b 906 228 717 -14 858 97 b 590 92 821 142 724 92 b 196 518 388 92 196 243 b 532 906 196 753 360 906 b 878 660 699 906 796 790 l 878 972 l 785 900 b 546 972 729 938 653 972 b 64 457 310 972 64 767 z m 485 1026 l 607 1026 l 790 1267 l 546 1113 l 301 1267 z "},"Ç":{"ha":947,"x_min":0,"x_max":0,"o":"m 64 457 b 499 -12 64 182 265 3 l 419 -144 b 560 -247 496 -164 560 -196 b 474 -337 560 -292 511 -331 l 417 -257 b 353 -315 382 -257 353 -281 b 432 -371 353 -347 383 -371 b 638 -210 518 -371 638 -292 b 511 -79 638 -139 575 -107 l 517 -14 b 532 -14 522 -14 526 -14 b 906 228 717 -14 858 97 b 590 92 821 142 724 92 b 196 518 388 92 196 243 b 532 906 196 753 360 906 b 878 660 699 906 796 790 l 878 972 l 785 900 b 546 972 729 938 653 972 b 64 457 310 972 64 767 z "},"Ĉ":{"ha":947,"x_min":0,"x_max":0,"o":"m 64 457 b 532 -14 64 168 285 -14 b 906 228 717 -14 858 97 b 590 92 821 142 724 92 b 196 518 388 92 196 243 b 532 906 196 753 360 906 b 878 660 699 906 796 790 l 878 972 l 785 900 b 546 972 729 938 653 972 b 64 457 310 972 64 767 z m 485 1254 l 301 1014 l 546 1168 l 790 1014 l 607 1254 z "},"Ċ":{"ha":947,"x_min":0,"x_max":0,"o":"m 64 457 b 532 -14 64 168 285 -14 b 906 228 717 -14 858 97 b 590 92 821 142 724 92 b 196 518 388 92 196 243 b 532 906 196 753 360 906 b 878 660 699 906 796 790 l 878 972 l 785 900 b 546 972 729 938 653 972 b 64 457 310 972 64 767 z m 535 1038 b 617 1118 581 1038 617 1072 b 535 1200 617 1164 581 1200 b 454 1118 489 1200 454 1164 b 535 1038 454 1072 489 1038 z "},"Ď":{"ha":1096,"x_min":0,"x_max":0,"o":"m 410 958 l 47 958 l 47 897 l 190 897 l 190 61 l 47 61 l 47 0 l 424 0 b 1032 506 764 0 1032 200 b 410 958 1032 792 769 958 z m 399 897 b 882 504 699 897 882 754 b 401 61 882 239 700 61 l 324 61 l 324 897 z m 439 1026 l 561 1026 l 744 1267 l 500 1113 l 256 1267 z "},"Đ":{"ha":1114,"x_min":0,"x_max":0,"o":"m 65 460 l 208 460 l 208 61 l 65 61 l 65 0 l 442 0 b 1050 506 782 0 1050 200 b 428 958 1050 792 788 958 l 65 958 l 65 897 l 208 897 l 208 521 l 93 521 z m 417 897 b 900 504 717 897 900 754 b 419 61 900 239 718 61 l 342 61 l 342 460 l 563 460 l 590 521 l 342 521 l 342 897 z "},"É":{"ha":908,"x_min":0,"x_max":0,"o":"m 528 521 l 324 521 l 324 897 l 644 897 l 788 704 l 788 999 l 713 958 l 47 958 l 47 897 l 190 897 l 190 61 l 47 61 l 47 0 l 811 0 l 869 296 l 672 61 l 324 61 l 324 460 l 528 460 l 638 310 l 638 669 z m 714 1176 l 576 1244 l 331 1026 z "},"Ĕ":{"ha":908,"x_min":0,"x_max":0,"o":"m 528 521 l 324 521 l 324 897 l 644 897 l 788 704 l 788 999 l 713 958 l 47 958 l 47 897 l 190 897 l 190 61 l 47 61 l 47 0 l 811 0 l 869 296 l 672 61 l 324 61 l 324 460 l 528 460 l 638 310 l 638 669 z m 453 1026 b 676 1283 564 1026 676 1122 b 453 1118 621 1175 550 1118 b 229 1283 356 1118 285 1175 b 453 1026 229 1122 342 1026 z "},"Ě":{"ha":908,"x_min":0,"x_max":0,"o":"m 528 521 l 324 521 l 324 897 l 644 897 l 788 704 l 788 999 l 713 958 l 47 958 l 47 897 l 190 897 l 190 61 l 47 61 l 47 0 l 811 0 l 869 296 l 672 61 l 324 61 l 324 460 l 528 460 l 638 310 l 638 669 z m 392 1026 l 514 1026 l 697 1267 l 453 1113 l 208 1267 z "},"Ê":{"ha":908,"x_min":0,"x_max":0,"o":"m 528 521 l 324 521 l 324 897 l 644 897 l 788 704 l 788 999 l 713 958 l 47 958 l 47 897 l 190 897 l 190 61 l 47 61 l 47 0 l 811 0 l 869 296 l 672 61 l 324 61 l 324 460 l 528 460 l 638 310 l 638 669 z m 392 1254 l 208 1014 l 453 1168 l 697 1014 l 514 1254 z "},"Ë":{"ha":908,"x_min":0,"x_max":0,"o":"m 528 521 l 324 521 l 324 897 l 644 897 l 788 704 l 788 999 l 713 958 l 47 958 l 47 897 l 190 897 l 190 61 l 47 61 l 47 0 l 811 0 l 869 296 l 672 61 l 324 61 l 324 460 l 528 460 l 638 310 l 638 669 z m 574 1047 b 653 1124 618 1047 653 1081 b 574 1200 653 1167 618 1200 b 496 1124 529 1200 496 1167 b 574 1047 496 1081 529 1047 z m 303 1047 b 382 1124 347 1047 382 1081 b 303 1200 382 1167 347 1200 b 225 1124 258 1200 225 1167 b 303 1047 225 1081 258 1047 z "},"Ė":{"ha":908,"x_min":0,"x_max":0,"o":"m 528 521 l 324 521 l 324 897 l 644 897 l 788 704 l 788 999 l 713 958 l 47 958 l 47 897 l 190 897 l 190 61 l 47 61 l 47 0 l 811 0 l 869 296 l 672 61 l 324 61 l 324 460 l 528 460 l 638 310 l 638 669 z m 453 1038 b 535 1118 499 1038 535 1072 b 453 1200 535 1164 499 1200 b 372 1118 407 1200 372 1164 b 453 1038 372 1072 407 1038 z "},"È":{"ha":908,"x_min":0,"x_max":0,"o":"m 528 521 l 324 521 l 324 897 l 644 897 l 788 704 l 788 999 l 713 958 l 47 958 l 47 897 l 190 897 l 190 61 l 47 61 l 47 0 l 811 0 l 869 296 l 672 61 l 324 61 l 324 460 l 528 460 l 638 310 l 638 669 z m 251 1176 l 635 1026 l 389 1244 z "},"Ē":{"ha":908,"x_min":0,"x_max":0,"o":"m 528 521 l 324 521 l 324 897 l 644 897 l 788 704 l 788 999 l 713 958 l 47 958 l 47 897 l 190 897 l 190 61 l 47 61 l 47 0 l 811 0 l 869 296 l 672 61 l 324 61 l 324 460 l 528 460 l 638 310 l 638 669 z m 269 1143 l 203 1061 l 636 1061 l 703 1143 z "},"Ę":{"ha":908,"x_min":0,"x_max":0,"o":"m 528 521 l 324 521 l 324 897 l 644 897 l 788 704 l 788 999 l 713 958 l 47 958 l 47 897 l 190 897 l 190 61 l 47 61 l 47 0 l 622 0 b 436 -262 524 -75 436 -182 b 544 -371 436 -333 485 -371 b 678 -297 594 -371 631 -342 l 615 -297 b 521 -218 550 -297 521 -272 b 661 0 521 -150 588 -61 l 811 0 l 869 296 l 672 61 l 324 61 l 324 460 l 528 460 l 638 310 l 638 669 z "},"Ð":{"ha":1114,"x_min":0,"x_max":0,"o":"m 65 460 l 208 460 l 208 61 l 65 61 l 65 0 l 442 0 b 1050 506 782 0 1050 200 b 428 958 1050 792 788 958 l 65 958 l 65 897 l 208 897 l 208 521 l 93 521 z m 417 897 b 900 504 717 897 900 754 b 419 61 900 239 718 61 l 342 61 l 342 460 l 563 460 l 590 521 l 342 521 l 342 897 z "},"Ğ":{"ha":1075,"x_min":0,"x_max":0,"o":"m 775 363 l 775 75 b 638 56 736 61 686 56 b 219 503 424 56 219 224 b 557 906 219 747 368 906 b 921 660 732 906 838 792 l 921 972 l 824 900 b 561 972 764 938 674 972 b 71 467 325 972 71 772 b 590 -14 71 165 315 -14 b 997 133 763 -14 910 42 l 906 133 l 906 363 l 1035 363 l 1035 424 l 618 424 l 618 363 z m 560 1026 b 783 1283 671 1026 783 1122 b 560 1118 728 1175 657 1118 b 336 1283 463 1118 392 1175 b 560 1026 336 1122 449 1026 z "},"Ĝ":{"ha":1075,"x_min":0,"x_max":0,"o":"m 775 363 l 775 75 b 638 56 736 61 686 56 b 219 503 424 56 219 224 b 557 906 219 747 368 906 b 921 660 732 906 838 792 l 921 972 l 824 900 b 561 972 764 938 674 972 b 71 467 325 972 71 772 b 590 -14 71 165 315 -14 b 997 133 763 -14 910 42 l 906 133 l 906 363 l 1035 363 l 1035 424 l 618 424 l 618 363 z m 496 1254 l 313 1014 l 557 1168 l 801 1014 l 618 1254 z "},"Ģ":{"ha":1075,"x_min":0,"x_max":0,"o":"m 775 363 l 775 75 b 638 56 736 61 686 56 b 219 503 424 56 219 224 b 557 906 219 747 368 906 b 921 660 732 906 838 792 l 921 972 l 824 900 b 561 972 764 938 674 972 b 71 467 325 972 71 772 b 590 -14 71 165 315 -14 b 997 133 763 -14 910 42 l 906 133 l 906 363 l 1035 363 l 1035 424 l 618 424 l 618 363 z m 508 -164 b 536 -219 508 -187 518 -208 l 614 -219 b 474 -372 607 -271 553 -333 b 692 -193 586 -372 692 -290 b 593 -90 692 -139 656 -90 b 508 -164 540 -90 508 -126 z "},"Ġ":{"ha":1075,"x_min":0,"x_max":0,"o":"m 775 363 l 775 75 b 638 56 736 61 686 56 b 219 503 424 56 219 224 b 557 906 219 747 368 906 b 921 660 732 906 838 792 l 921 972 l 824 900 b 561 972 764 938 674 972 b 71 467 325 972 71 772 b 590 -14 71 165 315 -14 b 997 133 763 -14 910 42 l 906 133 l 906 363 l 1035 363 l 1035 424 l 618 424 l 618 363 z m 563 1038 b 644 1118 608 1038 644 1072 b 563 1200 644 1164 608 1200 b 482 1118 517 1200 482 1164 b 563 1038 482 1072 517 1038 z "},"Ħ":{"ha":1231,"x_min":0,"x_max":0,"o":"m 65 626 l 208 626 l 208 61 l 65 61 l 65 0 l 485 0 l 485 61 l 342 61 l 342 404 l 889 404 l 889 61 l 746 61 l 746 0 l 1165 0 l 1165 61 l 1022 61 l 1022 626 l 1138 626 l 1165 688 l 1022 688 l 1022 897 l 1165 897 l 1165 958 l 746 958 l 746 897 l 889 897 l 889 688 l 342 688 l 342 897 l 485 897 l 485 958 l 65 958 l 65 897 l 208 897 l 208 688 l 93 688 z m 342 465 l 342 626 l 889 626 l 889 465 z "},"Ĥ":{"ha":1194,"x_min":0,"x_max":0,"o":"m 47 958 l 47 897 l 190 897 l 190 61 l 47 61 l 47 0 l 467 0 l 467 61 l 324 61 l 324 460 l 871 460 l 871 61 l 728 61 l 728 0 l 1147 0 l 1147 61 l 1004 61 l 1004 897 l 1147 897 l 1147 958 l 728 958 l 728 897 l 871 897 l 871 521 l 324 521 l 324 897 l 467 897 l 467 958 z m 536 1254 l 353 1014 l 597 1168 l 842 1014 l 658 1254 z "},"Í":{"ha":514,"x_min":0,"x_max":0,"o":"m 47 958 l 47 897 l 190 897 l 190 61 l 47 61 l 47 0 l 467 0 l 467 61 l 324 61 l 324 897 l 467 897 l 467 958 z m 493 1176 l 356 1244 l 110 1026 z "},"Ĭ":{"ha":514,"x_min":0,"x_max":0,"o":"m 47 958 l 47 897 l 190 897 l 190 61 l 47 61 l 47 0 l 467 0 l 467 61 l 324 61 l 324 897 l 467 897 l 467 958 z m 257 1026 b 481 1283 368 1026 481 1122 b 257 1118 425 1175 354 1118 b 33 1283 160 1118 89 1175 b 257 1026 33 1122 146 1026 z "},"Î":{"ha":514,"x_min":0,"x_max":0,"o":"m 47 958 l 47 897 l 190 897 l 190 61 l 47 61 l 47 0 l 467 0 l 467 61 l 324 61 l 324 897 l 467 897 l 467 958 z m 196 1254 l 13 1014 l 257 1168 l 501 1014 l 318 1254 z "},"Ï":{"ha":514,"x_min":0,"x_max":0,"o":"m 47 958 l 47 897 l 190 897 l 190 61 l 47 61 l 47 0 l 467 0 l 467 61 l 324 61 l 324 897 l 467 897 l 467 958 z m 392 1047 b 471 1124 436 1047 471 1081 b 392 1200 471 1167 436 1200 b 314 1124 347 1200 314 1167 b 392 1047 314 1081 347 1047 z m 121 1047 b 200 1124 165 1047 200 1081 b 121 1200 200 1167 165 1200 b 43 1124 76 1200 43 1167 b 121 1047 43 1081 76 1047 z "},"İ":{"ha":514,"x_min":0,"x_max":0,"o":"m 47 958 l 47 897 l 190 897 l 190 61 l 47 61 l 47 0 l 467 0 l 467 61 l 324 61 l 324 897 l 467 897 l 467 958 z m 257 1038 b 339 1118 303 1038 339 1072 b 257 1200 339 1164 303 1200 b 176 1118 211 1200 176 1164 b 257 1038 176 1072 211 1038 z "},"Ì":{"ha":514,"x_min":0,"x_max":0,"o":"m 47 958 l 47 897 l 190 897 l 190 61 l 47 61 l 47 0 l 467 0 l 467 61 l 324 61 l 324 897 l 467 897 l 467 958 z m 21 1176 l 404 1026 l 158 1244 z "},"Ī":{"ha":514,"x_min":0,"x_max":0,"o":"m 47 958 l 47 897 l 190 897 l 190 61 l 47 61 l 47 0 l 467 0 l 467 61 l 324 61 l 324 897 l 467 897 l 467 958 z m 74 1143 l 7 1061 l 440 1061 l 507 1143 z "},"Į":{"ha":514,"x_min":0,"x_max":0,"o":"m 47 958 l 47 897 l 190 897 l 190 61 l 47 61 l 47 0 l 281 0 b 94 -262 182 -75 94 -182 b 203 -371 94 -333 143 -371 b 336 -297 253 -371 289 -342 l 274 -297 b 179 -218 208 -297 179 -272 b 319 0 179 -150 246 -61 l 467 0 l 467 61 l 324 61 l 324 897 l 467 897 l 467 958 z "},"Ĩ":{"ha":514,"x_min":0,"x_max":0,"o":"m 47 958 l 47 897 l 190 897 l 190 61 l 47 61 l 47 0 l 467 0 l 467 61 l 324 61 l 324 897 l 467 897 l 467 958 z m 426 1065 l 531 1293 b 357 1167 465 1224 401 1167 l 114 1232 l 10 1004 b 183 1131 75 1074 139 1131 z "},"Ĵ":{"ha":514,"x_min":0,"x_max":0,"o":"m 190 67 b 90 -214 190 -68 140 -168 l -58 -158 b -103 -239 -89 -176 -103 -210 b -17 -319 -103 -283 -69 -319 b 324 46 100 -319 271 -106 l 324 897 l 467 897 l 467 958 l 47 958 l 47 897 l 190 897 z m 189 1254 l 6 1014 l 250 1168 l 494 1014 l 311 1254 z "},"Ķ":{"ha":1006,"x_min":0,"x_max":0,"o":"m 47 958 l 47 897 l 190 897 l 190 61 l 47 61 l 47 0 l 467 0 l 467 61 l 324 61 l 324 515 l 822 0 l 1000 0 l 465 542 l 851 897 l 979 897 l 979 958 l 614 958 l 614 897 l 761 897 l 375 536 l 324 536 l 324 897 l 467 897 l 467 958 z m 444 -164 b 472 -219 444 -187 454 -208 l 550 -219 b 410 -372 543 -271 489 -333 b 628 -193 522 -372 628 -290 b 529 -90 628 -139 592 -90 b 444 -164 476 -90 444 -126 z "},"Ĺ":{"ha":876,"x_min":0,"x_max":0,"o":"m 190 897 l 190 61 l 47 61 l 47 0 l 797 0 l 856 296 l 658 61 l 324 61 l 324 897 l 467 897 l 467 958 l 47 958 l 47 897 z m 574 1176 l 436 1244 l 190 1026 z "},"Ľ":{"ha":876,"x_min":0,"x_max":0,"o":"m 190 897 l 190 61 l 47 61 l 47 0 l 797 0 l 856 296 l 658 61 l 324 61 l 324 897 l 467 897 l 467 958 l 47 958 l 47 897 z m 713 958 l 588 958 l 526 593 z "},"Ļ":{"ha":876,"x_min":0,"x_max":0,"o":"m 190 897 l 190 61 l 47 61 l 47 0 l 797 0 l 856 296 l 658 61 l 324 61 l 324 897 l 467 897 l 467 958 l 47 958 l 47 897 z m 356 -164 b 383 -219 356 -187 365 -208 l 461 -219 b 321 -372 454 -271 400 -333 b 539 -193 433 -372 539 -290 b 440 -90 539 -139 503 -90 b 356 -164 388 -90 356 -126 z "},"Ŀ":{"ha":876,"x_min":0,"x_max":0,"o":"m 190 897 l 190 61 l 47 61 l 47 0 l 797 0 l 856 296 l 658 61 l 324 61 l 324 897 l 467 897 l 467 958 l 47 958 l 47 897 z m 661 465 b 746 549 708 465 746 503 b 661 632 746 594 708 632 b 576 549 614 632 576 594 b 661 465 576 503 614 465 z "},"Ł":{"ha":894,"x_min":0,"x_max":0,"o":"m 65 299 l 208 382 l 208 61 l 65 61 l 65 0 l 815 0 l 874 296 l 676 61 l 342 61 l 342 450 l 563 581 l 563 646 l 342 515 l 342 897 l 485 897 l 485 958 l 65 958 l 65 897 l 208 897 l 208 447 l 65 364 z "},"Ń":{"ha":1075,"x_min":0,"x_max":0,"o":"m 383 0 l 383 61 l 240 61 l 240 714 l 904 -46 l 904 897 l 1047 897 l 1047 958 l 689 958 l 689 897 l 832 897 l 832 217 l 196 958 l 26 958 l 168 796 l 168 61 l 25 61 l 25 0 z m 778 1176 l 640 1244 l 394 1026 z "},"Ň":{"ha":1075,"x_min":0,"x_max":0,"o":"m 383 0 l 383 61 l 240 61 l 240 714 l 904 -46 l 904 897 l 1047 897 l 1047 958 l 689 958 l 689 897 l 832 897 l 832 217 l 196 958 l 26 958 l 168 796 l 168 61 l 25 61 l 25 0 z m 469 1026 l 592 1026 l 775 1267 l 531 1113 l 286 1267 z "},"Ņ":{"ha":1075,"x_min":0,"x_max":0,"o":"m 383 0 l 383 61 l 240 61 l 240 714 l 904 -46 l 904 897 l 1047 897 l 1047 958 l 689 958 l 689 897 l 832 897 l 832 217 l 196 958 l 26 958 l 168 796 l 168 61 l 25 61 l 25 0 z m 449 -164 b 476 -219 449 -187 458 -208 l 554 -219 b 414 -372 547 -271 493 -333 b 632 -193 526 -372 632 -290 b 533 -90 632 -139 596 -90 b 449 -164 481 -90 449 -126 z "},"Ñ":{"ha":1075,"x_min":0,"x_max":0,"o":"m 383 0 l 383 61 l 240 61 l 240 714 l 904 -46 l 904 897 l 1047 897 l 1047 958 l 689 958 l 689 897 l 832 897 l 832 217 l 196 958 l 26 958 l 168 796 l 168 61 l 25 61 l 25 0 z m 703 1065 l 807 1293 b 633 1167 742 1224 678 1167 l 390 1232 l 286 1004 b 460 1131 351 1074 415 1131 z "},"Ŋ":{"ha":1075,"x_min":0,"x_max":0,"o":"m 383 0 l 383 61 l 240 61 l 240 714 l 832 36 l 832 -12 b 724 -304 832 -143 771 -262 l 600 -257 b 558 -326 571 -274 558 -300 b 636 -403 558 -365 588 -403 b 904 -72 743 -403 854 -210 l 904 897 l 1047 897 l 1047 958 l 689 958 l 689 897 l 832 897 l 832 217 l 196 958 l 26 958 l 168 796 l 168 61 l 25 61 l 25 0 z "},"Ó":{"ha":1122,"x_min":0,"x_max":0,"o":"m 1058 479 b 561 972 1058 764 818 972 b 64 479 304 972 64 764 b 561 -14 64 194 304 -14 b 1058 479 818 -14 1058 194 z m 214 479 b 561 907 214 731 386 907 b 908 479 736 907 908 731 b 561 50 908 228 736 50 b 214 479 386 50 214 228 z m 781 1176 l 643 1244 l 397 1026 z "},"Ŏ":{"ha":1122,"x_min":0,"x_max":0,"o":"m 1058 479 b 561 972 1058 764 818 972 b 64 479 304 972 64 764 b 561 -14 64 194 304 -14 b 1058 479 818 -14 1058 194 z m 214 479 b 561 907 214 731 386 907 b 908 479 736 907 908 731 b 561 50 908 228 736 50 b 214 479 386 50 214 228 z m 561 1026 b 785 1283 672 1026 785 1122 b 561 1118 729 1175 658 1118 b 338 1283 464 1118 393 1175 b 561 1026 338 1122 450 1026 z "},"Ô":{"ha":1122,"x_min":0,"x_max":0,"o":"m 1058 479 b 561 972 1058 764 818 972 b 64 479 304 972 64 764 b 561 -14 64 194 304 -14 b 1058 479 818 -14 1058 194 z m 214 479 b 561 907 214 731 386 907 b 908 479 736 907 908 731 b 561 50 908 228 736 50 b 214 479 386 50 214 228 z m 500 1254 l 317 1014 l 561 1168 l 806 1014 l 622 1254 z "},"Ö":{"ha":1122,"x_min":0,"x_max":0,"o":"m 1058 479 b 561 972 1058 764 818 972 b 64 479 304 972 64 764 b 561 -14 64 194 304 -14 b 1058 479 818 -14 1058 194 z m 214 479 b 561 907 214 731 386 907 b 908 479 736 907 908 731 b 561 50 908 228 736 50 b 214 479 386 50 214 228 z m 696 1047 b 775 1124 740 1047 775 1081 b 696 1200 775 1167 740 1200 b 618 1124 651 1200 618 1167 b 696 1047 618 1081 651 1047 z m 425 1047 b 504 1124 469 1047 504 1081 b 425 1200 504 1167 469 1200 b 347 1124 381 1200 347 1167 b 425 1047 347 1081 381 1047 z "},"Ò":{"ha":1122,"x_min":0,"x_max":0,"o":"m 1058 479 b 561 972 1058 764 818 972 b 64 479 304 972 64 764 b 561 -14 64 194 304 -14 b 1058 479 818 -14 1058 194 z m 214 479 b 561 907 214 731 386 907 b 908 479 736 907 908 731 b 561 50 908 228 736 50 b 214 479 386 50 214 228 z m 342 1176 l 725 1026 l 479 1244 z "},"Ő":{"ha":1122,"x_min":0,"x_max":0,"o":"m 1058 479 b 561 972 1058 764 818 972 b 64 479 304 972 64 764 b 561 -14 64 194 304 -14 b 1058 479 818 -14 1058 194 z m 214 479 b 561 907 214 731 386 907 b 908 479 736 907 908 731 b 561 50 908 228 736 50 b 214 479 386 50 214 228 z m 790 1243 l 633 1026 l 947 1215 z m 521 1243 l 364 1026 l 678 1215 z "},"Ō":{"ha":1122,"x_min":0,"x_max":0,"o":"m 1058 479 b 561 972 1058 764 818 972 b 64 479 304 972 64 764 b 561 -14 64 194 304 -14 b 1058 479 818 -14 1058 194 z m 214 479 b 561 907 214 731 386 907 b 908 479 736 907 908 731 b 561 50 908 228 736 50 b 214 479 386 50 214 228 z m 378 1143 l 311 1061 l 744 1061 l 811 1143 z "},"Ø":{"ha":1122,"x_min":0,"x_max":0,"o":"m 1058 479 b 882 854 1058 633 988 765 l 986 1000 l 913 1000 l 833 890 b 561 972 753 943 658 972 b 64 479 304 972 64 764 b 260 89 64 315 143 178 l 138 -81 l 211 -81 l 308 56 b 561 -14 385 11 472 -14 b 1058 479 818 -14 1058 194 z m 214 479 b 561 907 214 731 386 907 b 778 811 639 907 715 872 l 319 174 b 214 479 256 249 214 356 z m 908 479 b 561 50 908 228 736 50 b 363 129 490 50 421 79 l 818 765 b 908 479 872 692 908 593 z "},"Ǿ":{"ha":1122,"x_min":0,"x_max":0,"o":"m 1058 479 b 882 854 1058 633 988 765 l 986 1000 l 913 1000 l 833 890 b 561 972 753 943 658 972 b 64 479 304 972 64 764 b 260 89 64 315 143 178 l 138 -81 l 211 -81 l 308 56 b 561 -14 385 11 472 -14 b 1058 479 818 -14 1058 194 z m 214 479 b 561 907 214 731 386 907 b 778 811 639 907 715 872 l 319 174 b 214 479 256 249 214 356 z m 908 479 b 561 50 908 228 736 50 b 363 129 490 50 421 79 l 818 765 b 908 479 872 692 908 593 z m 781 1176 l 643 1244 l 397 1026 z "},"Õ":{"ha":1122,"x_min":0,"x_max":0,"o":"m 1058 479 b 561 972 1058 764 818 972 b 64 479 304 972 64 764 b 561 -14 64 194 304 -14 b 1058 479 818 -14 1058 194 z m 214 479 b 561 907 214 731 386 907 b 908 479 736 907 908 731 b 561 50 908 228 736 50 b 214 479 386 50 214 228 z m 717 1065 l 821 1293 b 647 1167 756 1224 692 1167 l 404 1232 l 300 1004 b 474 1131 365 1074 429 1131 z "},"Œ":{"ha":1510,"x_min":0,"x_max":0,"o":"m 686 0 l 1393 0 l 1451 296 l 1254 61 l 906 61 l 906 460 l 1110 460 l 1219 310 l 1219 669 l 1110 521 l 906 521 l 906 897 l 1226 897 l 1369 704 l 1369 999 l 1294 958 l 672 958 b 64 453 332 958 64 758 b 686 0 64 167 326 0 z m 697 61 b 214 454 397 61 214 204 b 694 897 214 719 396 897 l 772 897 l 772 61 z "},"Ŕ":{"ha":976,"x_min":0,"x_max":0,"o":"m 467 61 l 324 61 l 324 453 l 415 453 l 810 0 l 982 0 l 560 465 b 825 713 708 494 825 576 b 426 958 825 886 657 958 l 47 958 l 47 897 l 190 897 l 190 61 l 47 61 l 47 0 l 467 0 z m 324 897 l 425 897 b 685 707 576 897 685 840 b 425 510 685 574 576 510 l 324 510 z m 715 1176 l 578 1244 l 332 1026 z "},"Ř":{"ha":976,"x_min":0,"x_max":0,"o":"m 467 61 l 324 61 l 324 453 l 415 453 l 810 0 l 982 0 l 560 465 b 825 713 708 494 825 576 b 426 958 825 886 657 958 l 47 958 l 47 897 l 190 897 l 190 61 l 47 61 l 47 0 l 467 0 z m 324 897 l 425 897 b 685 707 576 897 685 840 b 425 510 685 574 576 510 l 324 510 z m 365 1026 l 488 1026 l 671 1267 l 426 1113 l 182 1267 z "},"Ŗ":{"ha":976,"x_min":0,"x_max":0,"o":"m 467 61 l 324 61 l 324 453 l 415 453 l 810 0 l 982 0 l 560 465 b 825 713 708 494 825 576 b 426 958 825 886 657 958 l 47 958 l 47 897 l 190 897 l 190 61 l 47 61 l 47 0 l 467 0 z m 324 897 l 425 897 b 685 707 576 897 685 840 b 425 510 685 574 576 510 l 324 510 z m 414 -164 b 442 -219 414 -187 424 -208 l 519 -219 b 379 -372 513 -271 458 -333 b 597 -193 492 -372 597 -290 b 499 -90 597 -139 561 -90 b 414 -164 446 -90 414 -126 z "},"Ś":{"ha":771,"x_min":0,"x_max":0,"o":"m 365 906 b 660 663 496 906 588 793 l 660 975 l 564 903 b 371 972 525 939 451 972 b 94 706 210 972 94 850 b 571 229 94 408 571 485 b 381 54 571 117 485 54 b 69 319 243 54 139 153 l 69 88 b 350 -14 136 26 249 -14 b 694 285 540 -14 694 108 b 206 753 694 579 206 533 b 365 906 206 842 271 906 z m 649 1176 l 511 1244 l 265 1026 z "},"Š":{"ha":771,"x_min":0,"x_max":0,"o":"m 365 906 b 660 663 496 906 588 793 l 660 975 l 564 903 b 371 972 525 939 451 972 b 94 706 210 972 94 850 b 571 229 94 408 571 485 b 381 54 571 117 485 54 b 69 319 243 54 139 153 l 69 88 b 350 -14 136 26 249 -14 b 694 285 540 -14 694 108 b 206 753 694 579 206 533 b 365 906 206 842 271 906 z m 313 1026 l 435 1026 l 618 1267 l 374 1113 l 129 1267 z "},"Ş":{"ha":771,"x_min":0,"x_max":0,"o":"m 274 -371 b 479 -210 360 -371 479 -292 b 353 -79 479 -139 417 -107 l 358 -14 b 694 285 544 -10 694 111 b 206 753 694 579 206 533 b 365 906 206 842 271 906 b 660 663 496 906 588 793 l 660 975 l 564 903 b 371 972 525 939 451 972 b 94 706 210 972 94 850 b 571 229 94 408 571 485 b 381 54 571 117 485 54 b 69 319 243 54 139 153 l 69 88 b 339 -14 133 29 240 -11 l 261 -144 b 401 -247 338 -164 401 -196 b 315 -337 401 -292 353 -331 l 258 -257 b 194 -315 224 -257 194 -281 b 274 -371 194 -347 225 -371 z "},"Ŝ":{"ha":771,"x_min":0,"x_max":0,"o":"m 365 906 b 660 663 496 906 588 793 l 660 975 l 564 903 b 371 972 525 939 451 972 b 94 706 210 972 94 850 b 571 229 94 408 571 485 b 381 54 571 117 485 54 b 69 319 243 54 139 153 l 69 88 b 350 -14 136 26 249 -14 b 694 285 540 -14 694 108 b 206 753 694 579 206 533 b 365 906 206 842 271 906 z m 325 1254 l 142 1014 l 386 1168 l 631 1014 l 447 1254 z "},"Ș":{"ha":771,"x_min":0,"x_max":0,"o":"m 365 906 b 660 663 496 906 588 793 l 660 975 l 564 903 b 371 972 525 939 451 972 b 94 706 210 972 94 850 b 571 229 94 408 571 485 b 381 54 571 117 485 54 b 69 319 243 54 139 153 l 69 88 b 350 -14 136 26 249 -14 b 694 285 540 -14 694 108 b 206 753 694 579 206 533 b 365 906 206 842 271 906 z m 278 -164 b 306 -219 278 -187 288 -208 l 383 -219 b 243 -372 376 -271 322 -333 b 461 -193 356 -372 461 -290 b 363 -90 461 -139 425 -90 b 278 -164 310 -90 278 -126 z "},"ẞ":{"ha":1060,"x_min":0,"x_max":0,"o":"m 706 51 b 435 310 596 51 501 144 l 435 81 b 694 -14 499 24 588 -14 b 1008 293 883 -14 1008 136 b 711 599 1008 461 858 558 l 981 947 l 851 914 b 564 972 781 943 676 972 b 163 585 321 972 163 818 l 163 61 l 19 61 l 19 0 l 296 0 l 296 586 b 547 918 296 751 365 918 b 786 790 646 918 740 863 l 574 517 b 892 247 761 482 892 388 b 706 51 892 125 810 51 z "},"Ŧ":{"ha":1006,"x_min":0,"x_max":0,"o":"m 242 460 l 436 460 l 436 61 l 279 61 l 279 0 l 726 0 l 726 61 l 569 61 l 569 460 l 736 460 l 764 521 l 569 521 l 569 897 l 807 897 l 950 690 l 950 999 l 875 958 l 131 958 l 56 999 l 56 690 l 199 897 l 436 897 l 436 521 l 269 521 z "},"Ť":{"ha":1006,"x_min":0,"x_max":0,"o":"m 199 897 l 436 897 l 436 61 l 279 61 l 279 0 l 726 0 l 726 61 l 569 61 l 569 897 l 807 897 l 950 690 l 950 999 l 875 958 l 131 958 l 56 999 l 56 690 z m 442 1026 l 258 1267 l 503 1113 l 747 1267 l 564 1026 z "},"Ţ":{"ha":1006,"x_min":0,"x_max":0,"o":"m 418 -371 b 624 -210 504 -371 624 -292 b 497 -79 624 -139 561 -107 l 504 0 l 726 0 l 726 61 l 569 61 l 569 897 l 807 897 l 950 690 l 950 999 l 875 958 l 131 958 l 56 999 l 56 690 l 199 897 l 436 897 l 436 61 l 279 61 l 279 0 l 492 0 l 406 -144 b 546 -247 482 -164 546 -196 b 460 -337 546 -292 497 -331 l 403 -257 b 339 -315 368 -257 339 -281 b 418 -371 339 -347 369 -371 z "},"Ț":{"ha":1006,"x_min":0,"x_max":0,"o":"m 199 897 l 436 897 l 436 61 l 279 61 l 279 0 l 726 0 l 726 61 l 569 61 l 569 897 l 807 897 l 950 690 l 950 999 l 875 958 l 131 958 l 56 999 l 56 690 z m 422 -164 b 450 -219 422 -187 432 -208 l 528 -219 b 388 -372 521 -271 467 -333 b 606 -193 500 -372 606 -290 b 507 -90 606 -139 569 -90 b 422 -164 454 -90 422 -126 z "},"Þ":{"ha":874,"x_min":0,"x_max":0,"o":"m 47 61 l 47 0 l 501 0 l 501 61 l 324 61 l 324 696 l 426 696 b 690 483 581 696 690 632 b 403 271 690 353 606 271 l 510 219 b 826 479 660 219 826 310 b 428 757 826 668 661 757 l 324 757 l 324 897 l 467 897 l 467 958 l 47 958 l 47 897 l 190 897 l 190 61 z "},"Ú":{"ha":1083,"x_min":0,"x_max":0,"o":"m 846 374 b 574 74 846 175 738 74 b 299 375 410 74 299 175 l 299 897 l 442 897 l 442 958 l 22 958 l 22 897 l 165 897 l 165 349 b 550 -14 165 96 374 -14 b 918 353 747 -14 918 121 l 918 897 l 1061 897 l 1061 958 l 703 958 l 703 897 l 846 897 z m 794 1176 l 657 1244 l 411 1026 z "},"Ŭ":{"ha":1083,"x_min":0,"x_max":0,"o":"m 846 374 b 574 74 846 175 738 74 b 299 375 410 74 299 175 l 299 897 l 442 897 l 442 958 l 22 958 l 22 897 l 165 897 l 165 349 b 550 -14 165 96 374 -14 b 918 353 747 -14 918 121 l 918 897 l 1061 897 l 1061 958 l 703 958 l 703 897 l 846 897 z m 568 1026 b 792 1283 679 1026 792 1122 b 568 1118 736 1175 665 1118 b 344 1283 471 1118 400 1175 b 568 1026 344 1122 457 1026 z "},"Û":{"ha":1083,"x_min":0,"x_max":0,"o":"m 846 374 b 574 74 846 175 738 74 b 299 375 410 74 299 175 l 299 897 l 442 897 l 442 958 l 22 958 l 22 897 l 165 897 l 165 349 b 550 -14 165 96 374 -14 b 918 353 747 -14 918 121 l 918 897 l 1061 897 l 1061 958 l 703 958 l 703 897 l 846 897 z m 507 1254 l 324 1014 l 568 1168 l 813 1014 l 629 1254 z "},"Ü":{"ha":1083,"x_min":0,"x_max":0,"o":"m 846 374 b 574 74 846 175 738 74 b 299 375 410 74 299 175 l 299 897 l 442 897 l 442 958 l 22 958 l 22 897 l 165 897 l 165 349 b 550 -14 165 96 374 -14 b 918 353 747 -14 918 121 l 918 897 l 1061 897 l 1061 958 l 703 958 l 703 897 l 846 897 z m 711 1047 b 790 1124 756 1047 790 1081 b 711 1200 790 1167 756 1200 b 633 1124 667 1200 633 1167 b 711 1047 633 1081 667 1047 z m 440 1047 b 519 1124 485 1047 519 1081 b 440 1200 519 1167 485 1200 b 363 1124 396 1200 363 1167 b 440 1047 363 1081 396 1047 z "},"Ù":{"ha":1083,"x_min":0,"x_max":0,"o":"m 846 374 b 574 74 846 175 738 74 b 299 375 410 74 299 175 l 299 897 l 442 897 l 442 958 l 22 958 l 22 897 l 165 897 l 165 349 b 550 -14 165 96 374 -14 b 918 353 747 -14 918 121 l 918 897 l 1061 897 l 1061 958 l 703 958 l 703 897 l 846 897 z m 313 1176 l 696 1026 l 450 1244 z "},"Ű":{"ha":1083,"x_min":0,"x_max":0,"o":"m 846 374 b 574 74 846 175 738 74 b 299 375 410 74 299 175 l 299 897 l 442 897 l 442 958 l 22 958 l 22 897 l 165 897 l 165 349 b 550 -14 165 96 374 -14 b 918 353 747 -14 918 121 l 918 897 l 1061 897 l 1061 958 l 703 958 l 703 897 l 846 897 z m 803 1243 l 646 1026 l 960 1215 z m 533 1243 l 376 1026 l 690 1215 z "},"Ū":{"ha":1083,"x_min":0,"x_max":0,"o":"m 846 374 b 574 74 846 175 738 74 b 299 375 410 74 299 175 l 299 897 l 442 897 l 442 958 l 22 958 l 22 897 l 165 897 l 165 349 b 550 -14 165 96 374 -14 b 918 353 747 -14 918 121 l 918 897 l 1061 897 l 1061 958 l 703 958 l 703 897 l 846 897 z m 407 1143 l 340 1061 l 774 1061 l 840 1143 z "},"Ų":{"ha":1083,"x_min":0,"x_max":0,"o":"m 846 374 b 574 74 846 175 738 74 b 299 375 410 74 299 175 l 299 897 l 442 897 l 442 958 l 22 958 l 22 897 l 165 897 l 165 349 b 550 -14 165 96 374 -14 b 649 -3 583 -14 617 -10 b 468 -262 551 -78 468 -183 b 576 -371 468 -333 517 -371 b 710 -297 626 -371 663 -342 l 647 -297 b 553 -218 582 -297 553 -272 b 717 18 553 -143 628 -33 b 918 353 829 83 918 190 l 918 897 l 1061 897 l 1061 958 l 703 958 l 703 897 l 846 897 z "},"Ů":{"ha":1083,"x_min":0,"x_max":0,"o":"m 846 374 b 574 74 846 175 738 74 b 299 375 410 74 299 175 l 299 897 l 442 897 l 442 958 l 22 958 l 22 897 l 165 897 l 165 349 b 550 -14 165 96 374 -14 b 918 353 747 -14 918 121 l 918 897 l 1061 897 l 1061 958 l 703 958 l 703 897 l 846 897 z m 569 1307 b 417 1154 486 1307 417 1238 b 569 1003 417 1072 486 1003 b 722 1154 653 1003 722 1072 b 569 1307 722 1238 653 1307 z m 569 1250 b 665 1154 628 1250 665 1213 b 569 1060 665 1097 628 1060 b 474 1154 511 1060 474 1097 b 569 1250 474 1213 511 1250 z "},"Ũ":{"ha":1083,"x_min":0,"x_max":0,"o":"m 846 374 b 574 74 846 175 738 74 b 299 375 410 74 299 175 l 299 897 l 442 897 l 442 958 l 22 958 l 22 897 l 165 897 l 165 349 b 550 -14 165 96 374 -14 b 918 353 747 -14 918 121 l 918 897 l 1061 897 l 1061 958 l 703 958 l 703 897 l 846 897 z m 756 1065 l 860 1293 b 686 1167 794 1224 731 1167 l 443 1232 l 339 1004 b 513 1131 404 1074 468 1131 z "},"Ẃ":{"ha":1492,"x_min":0,"x_max":0,"o":"m 281 897 l 424 897 l 424 958 l 28 958 l 28 897 l 143 897 l 510 -57 l 756 582 l 982 -57 l 1349 897 l 1464 897 l 1464 958 l 1106 958 l 1106 897 l 1276 897 l 1015 206 l 779 897 l 950 897 l 950 958 l 542 958 l 542 897 l 643 897 l 724 669 l 546 203 z m 967 1176 l 829 1244 l 583 1026 z "},"Ŵ":{"ha":1492,"x_min":0,"x_max":0,"o":"m 281 897 l 424 897 l 424 958 l 28 958 l 28 897 l 143 897 l 510 -57 l 756 582 l 982 -57 l 1349 897 l 1464 897 l 1464 958 l 1106 958 l 1106 897 l 1276 897 l 1015 206 l 779 897 l 950 897 l 950 958 l 542 958 l 542 897 l 643 897 l 724 669 l 546 203 z m 678 1254 l 494 1014 l 739 1168 l 983 1014 l 800 1254 z "},"Ẁ":{"ha":1492,"x_min":0,"x_max":0,"o":"m 281 897 l 424 897 l 424 958 l 28 958 l 28 897 l 143 897 l 510 -57 l 756 582 l 982 -57 l 1349 897 l 1464 897 l 1464 958 l 1106 958 l 1106 897 l 1276 897 l 1015 206 l 779 897 l 950 897 l 950 958 l 542 958 l 542 897 l 643 897 l 724 669 l 546 203 z m 518 1176 l 901 1026 l 656 1244 z "},"Ẅ":{"ha":1492,"x_min":0,"x_max":0,"o":"m 281 897 l 424 897 l 424 958 l 28 958 l 28 897 l 143 897 l 510 -57 l 756 582 l 982 -57 l 1349 897 l 1464 897 l 1464 958 l 1106 958 l 1106 897 l 1276 897 l 1015 206 l 779 897 l 950 897 l 950 958 l 542 958 l 542 897 l 643 897 l 724 669 l 546 203 z m 879 1047 b 958 1124 924 1047 958 1081 b 879 1200 958 1167 924 1200 b 801 1124 835 1200 801 1167 b 879 1047 801 1081 835 1047 z m 608 1047 b 688 1124 653 1047 688 1081 b 608 1200 688 1167 653 1200 b 531 1124 564 1200 531 1167 b 608 1047 531 1081 564 1047 z "},"Ý":{"ha":1047,"x_min":0,"x_max":0,"o":"m 747 0 l 747 61 l 590 61 l 590 463 l 904 897 l 1019 897 l 1019 958 l 654 958 l 654 897 l 825 897 l 557 521 l 299 897 l 469 897 l 469 958 l 28 958 l 28 897 l 143 897 l 457 463 l 457 61 l 300 61 l 300 0 z m 800 1176 l 417 1026 l 663 1244 z "},"Ŷ":{"ha":1047,"x_min":0,"x_max":0,"o":"m 747 0 l 747 61 l 590 61 l 590 463 l 904 897 l 1019 897 l 1019 958 l 654 958 l 654 897 l 825 897 l 557 521 l 299 897 l 469 897 l 469 958 l 28 958 l 28 897 l 143 897 l 457 463 l 457 61 l 300 61 l 300 0 z m 483 1254 l 300 1014 l 544 1168 l 789 1014 l 606 1254 z "},"Ÿ":{"ha":1047,"x_min":0,"x_max":0,"o":"m 747 0 l 747 61 l 590 61 l 590 463 l 904 897 l 1019 897 l 1019 958 l 654 958 l 654 897 l 825 897 l 557 521 l 299 897 l 469 897 l 469 958 l 28 958 l 28 897 l 143 897 l 457 463 l 457 61 l 300 61 l 300 0 z m 689 1047 b 768 1124 733 1047 768 1081 b 689 1200 768 1167 733 1200 b 611 1124 644 1200 611 1167 b 689 1047 611 1081 644 1047 z m 418 1047 b 497 1124 463 1047 497 1081 b 418 1200 497 1167 463 1200 b 340 1124 374 1200 340 1167 b 418 1047 340 1081 374 1047 z "},"Ỳ":{"ha":1047,"x_min":0,"x_max":0,"o":"m 747 0 l 747 61 l 590 61 l 590 463 l 904 897 l 1019 897 l 1019 958 l 654 958 l 654 897 l 825 897 l 557 521 l 299 897 l 469 897 l 469 958 l 28 958 l 28 897 l 143 897 l 457 463 l 457 61 l 300 61 l 300 0 z m 282 1176 l 665 1026 l 419 1244 z "},"Ź":{"ha":913,"x_min":0,"x_max":0,"o":"m 679 61 l 229 61 l 851 958 l 182 958 l 107 999 l 107 690 l 250 897 l 664 897 l 38 0 l 818 0 l 876 296 z m 713 1176 l 575 1244 l 329 1026 z "},"Ž":{"ha":913,"x_min":0,"x_max":0,"o":"m 679 61 l 229 61 l 851 958 l 182 958 l 107 999 l 107 690 l 250 897 l 664 897 l 38 0 l 818 0 l 876 296 z m 418 1026 l 540 1026 l 724 1267 l 479 1113 l 235 1267 z "},"Ż":{"ha":913,"x_min":0,"x_max":0,"o":"m 679 61 l 229 61 l 851 958 l 182 958 l 107 999 l 107 690 l 250 897 l 664 897 l 38 0 l 818 0 l 876 296 z m 465 1038 b 547 1118 511 1038 547 1072 b 465 1200 547 1164 511 1200 b 385 1118 419 1200 385 1164 b 465 1038 385 1072 419 1038 z "},"a":{"ha":628,"x_min":0,"x_max":0,"o":"m 378 440 l 378 357 l 219 294 b 50 119 135 261 50 210 b 182 -10 50 39 115 -10 b 354 74 258 -10 318 40 l 379 74 b 494 -11 394 26 431 -11 b 628 115 564 -11 628 40 b 557 83 608 93 583 83 b 492 161 518 83 492 107 l 492 482 b 351 639 492 585 428 639 b 40 421 228 639 89 540 l 192 421 l 192 549 b 378 440 339 590 378 514 z m 378 313 l 378 129 b 258 76 344 97 306 76 b 171 151 208 76 171 103 b 299 279 171 215 215 244 z "},"b":{"ha":761,"x_min":0,"x_max":0,"o":"m 107 925 l 107 46 b 349 -14 164 10 268 -14 b 715 333 543 -14 715 124 b 443 639 715 513 606 639 b 256 564 371 639 306 603 l 229 564 l 229 1083 l -29 989 z m 229 500 b 351 557 246 529 296 557 b 583 299 490 557 583 461 b 372 44 583 119 483 44 b 229 117 306 44 251 72 z "},"c":{"ha":604,"x_min":0,"x_max":0,"o":"m 463 449 b 554 531 511 449 554 485 b 389 639 554 592 493 639 b 46 289 207 639 46 488 b 328 -14 46 113 172 -14 b 564 186 456 -14 550 74 b 381 92 525 131 458 92 b 157 332 253 92 157 182 b 386 585 157 481 264 585 z "},"d":{"ha":783,"x_min":0,"x_max":0,"o":"m 654 118 l 654 1083 l 396 989 l 532 925 l 532 613 b 396 639 485 632 436 639 b 46 292 221 639 46 501 b 318 -14 46 113 161 -14 b 500 57 390 -14 450 18 l 532 57 l 532 -26 l 776 54 z m 532 125 b 410 68 515 96 465 68 b 178 326 276 68 178 164 b 389 581 178 506 278 581 b 532 507 457 581 514 549 z "},"e":{"ha":631,"x_min":0,"x_max":0,"o":"m 581 193 b 379 96 528 122 463 96 b 143 351 251 96 143 199 b 144 378 143 361 143 369 l 589 378 b 344 639 589 519 497 639 b 46 306 181 639 46 479 b 336 -14 46 121 171 -14 b 581 193 456 -14 557 54 z m 324 571 b 461 429 406 571 461 515 l 153 429 b 324 571 178 521 247 571 z "},"f":{"ha":440,"x_min":0,"x_max":0,"o":"m 136 56 l 36 56 l 36 0 l 400 0 l 400 56 l 258 56 l 258 538 l 417 538 l 458 607 l 258 607 b 443 1018 258 829 318 979 l 554 925 b 633 999 600 925 633 957 b 521 1083 633 1047 588 1083 b 136 639 324 1083 167 896 l 15 568 l 136 501 z "},"g":{"ha":721,"x_min":0,"x_max":0,"o":"m 203 61 l 203 217 b 328 189 240 199 283 189 b 588 414 464 189 588 283 b 550 531 588 457 574 497 l 706 531 l 706 657 l 513 572 b 328 639 464 614 397 639 b 68 414 192 639 68 543 b 186 225 68 332 117 264 b 94 75 132 182 94 131 b 176 -33 94 17 135 -18 l 176 -58 b 6 -237 99 -93 6 -153 b 282 -403 6 -344 132 -403 b 708 -99 494 -403 708 -276 b 490 61 708 8 621 61 z m 196 414 b 328 588 196 511 251 588 b 460 414 404 588 460 511 b 328 240 460 317 404 240 b 196 414 251 240 196 317 z m 435 -50 b 603 -154 535 -50 603 -76 b 346 -339 603 -265 478 -339 b 128 -201 204 -339 128 -279 b 244 -50 128 -122 186 -75 z "},"h":{"ha":781,"x_min":0,"x_max":0,"o":"m 129 925 l 129 56 l 29 56 l 29 0 l 351 0 l 351 56 l 251 56 l 251 468 b 397 542 288 503 340 542 b 533 400 483 542 533 493 l 533 56 l 433 56 l 433 0 l 756 0 l 756 56 l 656 56 l 656 435 b 489 639 656 556 603 639 b 283 533 396 639 332 581 l 251 533 l 251 1083 l -7 989 z "},"i":{"ha":389,"x_min":0,"x_max":0,"o":"m 185 813 b 269 896 232 813 269 850 b 185 979 269 942 232 979 b 100 896 138 979 100 942 b 185 813 100 850 138 813 z m 136 56 l 36 56 l 36 0 l 358 0 l 358 56 l 258 56 l 258 653 l 14 558 l 136 481 z "},"j":{"ha":353,"x_min":0,"x_max":0,"o":"m 176 813 b 261 896 224 813 261 850 b 176 979 261 942 224 979 b 92 896 129 979 92 942 b 176 813 92 850 129 813 z m -68 -403 b 250 -72 38 -403 200 -210 l 250 653 l 6 558 l 128 481 l 128 -54 b 26 -304 128 -185 74 -262 l -104 -257 b -146 -326 -133 -274 -146 -300 b -68 -403 -146 -365 -117 -403 z "},"k":{"ha":756,"x_min":0,"x_max":0,"o":"m 129 56 l 29 56 l 29 0 l 351 0 l 351 56 l 251 56 l 251 351 l 583 0 l 756 0 l 382 371 l 636 569 l 721 569 l 721 625 l 413 625 l 413 569 l 528 569 l 528 556 l 299 372 l 251 372 l 251 1083 l -7 989 l 129 925 z "},"l":{"ha":383,"x_min":0,"x_max":0,"o":"m 129 56 l 29 56 l 29 0 l 351 0 l 351 56 l 251 56 l 251 1083 l -7 989 l 129 925 z "},"m":{"ha":1192,"x_min":0,"x_max":0,"o":"m 136 481 l 136 56 l 36 56 l 36 0 l 358 0 l 358 56 l 258 56 l 258 468 b 404 542 294 503 347 542 b 540 400 490 542 540 493 l 540 56 l 440 56 l 440 0 l 763 0 l 763 56 l 663 56 l 663 468 b 808 542 699 503 751 542 b 944 400 894 542 944 493 l 944 56 l 844 56 l 844 0 l 1167 0 l 1167 56 l 1067 56 l 1067 435 b 900 639 1067 556 1014 639 b 681 526 807 639 729 574 l 656 526 b 496 639 629 592 581 639 b 290 533 403 639 339 581 l 258 533 l 258 653 l 14 558 z "},"n":{"ha":788,"x_min":0,"x_max":0,"o":"m 136 481 l 136 56 l 36 56 l 36 0 l 358 0 l 358 56 l 258 56 l 258 468 b 404 542 294 503 347 542 b 540 400 490 542 540 493 l 540 56 l 440 56 l 440 0 l 763 0 l 763 56 l 663 56 l 663 435 b 496 639 663 556 610 639 b 290 533 403 639 339 581 l 258 533 l 258 653 l 14 558 z "},"o":{"ha":747,"x_min":0,"x_max":0,"o":"m 46 313 b 374 -14 46 121 203 -14 b 701 313 544 -14 701 121 b 374 639 701 504 544 639 b 46 313 203 639 46 504 z m 181 313 b 374 585 181 468 272 585 b 567 313 475 585 567 471 b 374 40 567 154 475 40 b 181 313 272 40 181 154 z "},"p":{"ha":782,"x_min":0,"x_max":0,"o":"m 128 481 l 128 -333 l 28 -333 l 28 -389 l 392 -389 l 392 -333 l 250 -333 l 250 13 b 397 -14 297 -7 346 -14 b 736 333 561 -14 736 124 b 464 639 736 513 626 639 b 276 564 392 639 326 603 l 250 564 l 250 653 l 6 558 z m 250 117 l 250 500 b 372 557 267 529 317 557 b 604 299 511 557 604 461 b 393 44 604 119 504 44 b 250 117 326 44 272 72 z "},"q":{"ha":756,"x_min":0,"x_max":0,"o":"m 532 -333 l 390 -333 l 390 -389 l 754 -389 l 754 -333 l 654 -333 l 654 657 l 563 606 b 396 639 515 625 456 639 b 46 292 221 639 46 501 b 318 -14 46 113 161 -14 b 500 57 390 -14 450 18 l 532 57 z m 532 125 b 410 68 515 96 465 68 b 178 326 276 68 178 164 b 389 581 178 506 278 581 b 532 507 457 581 514 549 z "},"r":{"ha":556,"x_min":0,"x_max":0,"o":"m 136 481 l 136 56 l 36 56 l 36 0 l 400 0 l 400 56 l 258 56 l 258 461 l 368 543 l 476 478 b 542 564 514 493 542 526 b 463 639 542 608 507 639 b 288 531 403 639 351 589 l 258 531 l 258 653 l 14 558 z "},"s":{"ha":540,"x_min":0,"x_max":0,"o":"m 54 57 b 249 -14 92 18 168 -14 b 481 185 376 -14 481 72 b 172 493 481 392 172 353 b 261 578 172 547 211 578 b 458 407 333 578 400 506 l 458 639 l 389 590 b 264 639 361 617 313 639 b 68 456 164 639 68 567 b 371 149 68 251 371 299 b 264 50 371 85 322 50 b 54 229 189 50 108 103 z "},"t":{"ha":513,"x_min":0,"x_max":0,"o":"m 10 564 l 129 518 l 124 157 b 293 -14 124 44 201 -14 b 499 140 389 -14 465 39 b 357 79 454 97 410 79 b 240 210 293 79 240 117 l 240 538 l 439 538 l 481 607 l 240 607 l 240 758 z "},"u":{"ha":771,"x_min":0,"x_max":0,"o":"m 518 -26 l 763 54 l 640 118 l 640 633 l 410 618 l 410 563 l 518 563 l 518 125 b 396 68 501 96 451 68 b 247 225 310 68 247 122 l 247 633 l 17 618 l 17 563 l 125 563 l 125 190 b 308 -14 125 69 190 -14 b 486 60 376 -14 436 21 l 518 60 z "},"v":{"ha":689,"x_min":0,"x_max":0,"o":"m 549 569 l 375 158 l 208 569 l 319 569 l 319 625 l 10 625 l 10 569 l 74 569 l 346 -42 l 615 569 l 679 569 l 679 625 l 433 625 l 433 569 z "},"w":{"ha":988,"x_min":0,"x_max":0,"o":"m 847 569 l 688 164 l 546 569 l 657 569 l 657 625 l 364 625 l 364 569 l 428 569 l 479 433 l 358 161 l 204 569 l 289 569 l 289 625 l 10 625 l 10 569 l 74 569 l 325 -42 l 506 365 l 658 -42 l 914 569 l 978 569 l 978 625 l 732 625 l 732 569 z "},"x":{"ha":717,"x_min":0,"x_max":0,"o":"m 92 56 l 10 56 l 10 0 l 286 0 l 286 56 l 163 56 l 336 272 l 500 56 l 399 56 l 399 0 l 708 0 l 708 56 l 635 56 l 419 339 l 611 569 l 679 569 l 679 625 l 433 625 l 433 569 l 540 569 l 389 381 l 244 569 l 346 569 l 346 625 l 36 625 l 36 569 l 110 569 l 303 315 z "},"y":{"ha":689,"x_min":0,"x_max":0,"o":"m 549 569 l 368 103 l 208 569 l 319 569 l 319 625 l 10 625 l 10 569 l 74 569 l 301 -40 l 197 -297 l 71 -251 b 40 -318 50 -271 40 -294 b 131 -403 40 -361 74 -403 b 267 -283 206 -403 240 -347 l 615 569 l 679 569 l 679 625 l 433 625 l 433 569 z "},"z":{"ha":635,"x_min":0,"x_max":0,"o":"m 194 51 l 589 625 l 153 625 l 100 681 l 44 404 l 217 574 l 424 574 l 21 0 l 575 0 l 607 264 l 453 51 z "},"á":{"ha":628,"x_min":0,"x_max":0,"o":"m 378 440 l 378 357 l 219 294 b 50 119 135 261 50 210 b 182 -10 50 39 115 -10 b 354 74 258 -10 318 40 l 379 74 b 494 -11 394 26 431 -11 b 628 115 564 -11 628 40 b 557 83 608 93 583 83 b 492 161 518 83 492 107 l 492 482 b 351 639 492 585 428 639 b 40 421 228 639 89 540 l 192 421 l 192 549 b 378 440 339 590 378 514 z m 378 313 l 378 129 b 258 76 344 97 306 76 b 171 151 208 76 171 103 b 299 279 171 215 215 244 z m 500 1049 l 361 1049 l 258 683 z "},"ă":{"ha":628,"x_min":0,"x_max":0,"o":"m 378 440 l 378 357 l 219 294 b 50 119 135 261 50 210 b 182 -10 50 39 115 -10 b 354 74 258 -10 318 40 l 379 74 b 494 -11 394 26 431 -11 b 628 115 564 -11 628 40 b 557 83 608 93 583 83 b 492 161 518 83 492 107 l 492 482 b 351 639 492 585 428 639 b 40 421 228 639 89 540 l 192 421 l 192 549 b 378 440 339 590 378 514 z m 378 313 l 378 129 b 258 76 344 97 306 76 b 171 151 208 76 171 103 b 299 279 171 215 215 244 z m 303 803 b 135 1067 221 803 172 904 b 303 711 107 883 178 711 b 471 1067 428 711 499 883 b 303 803 433 904 385 803 z "},"â":{"ha":628,"x_min":0,"x_max":0,"o":"m 378 440 l 378 357 l 219 294 b 50 119 135 261 50 210 b 182 -10 50 39 115 -10 b 354 74 258 -10 318 40 l 379 74 b 494 -11 394 26 431 -11 b 628 115 564 -11 628 40 b 557 83 608 93 583 83 b 492 161 518 83 492 107 l 492 482 b 351 639 492 585 428 639 b 40 421 228 639 89 540 l 192 421 l 192 549 b 378 440 339 590 378 514 z m 378 313 l 378 129 b 258 76 344 97 306 76 b 171 151 208 76 171 103 b 299 279 171 215 215 244 z m 301 946 l 488 683 l 349 1049 l 254 1049 l 115 683 z "},"ä":{"ha":628,"x_min":0,"x_max":0,"o":"m 378 440 l 378 357 l 219 294 b 50 119 135 261 50 210 b 182 -10 50 39 115 -10 b 354 74 258 -10 318 40 l 379 74 b 494 -11 394 26 431 -11 b 628 115 564 -11 628 40 b 557 83 608 93 583 83 b 492 161 518 83 492 107 l 492 482 b 351 639 492 585 428 639 b 40 421 228 639 89 540 l 192 421 l 192 549 b 378 440 339 590 378 514 z m 378 313 l 378 129 b 258 76 344 97 306 76 b 171 151 208 76 171 103 b 299 279 171 215 215 244 z m 432 804 b 511 881 476 804 511 838 b 432 957 511 924 476 957 b 354 881 388 957 354 924 b 432 804 354 838 388 804 z m 175 804 b 254 881 219 804 254 838 b 175 957 254 924 219 957 b 97 881 131 957 97 924 b 175 804 97 838 131 804 z "},"à":{"ha":628,"x_min":0,"x_max":0,"o":"m 378 440 l 378 357 l 219 294 b 50 119 135 261 50 210 b 182 -10 50 39 115 -10 b 354 74 258 -10 318 40 l 379 74 b 494 -11 394 26 431 -11 b 628 115 564 -11 628 40 b 557 83 608 93 583 83 b 492 161 518 83 492 107 l 492 482 b 351 639 492 585 428 639 b 40 421 228 639 89 540 l 192 421 l 192 549 b 378 440 339 590 378 514 z m 378 313 l 378 129 b 258 76 344 97 306 76 b 171 151 208 76 171 103 b 299 279 171 215 215 244 z m 140 1049 l 382 683 l 279 1049 z "},"ā":{"ha":628,"x_min":0,"x_max":0,"o":"m 378 440 l 378 357 l 219 294 b 50 119 135 261 50 210 b 182 -10 50 39 115 -10 b 354 74 258 -10 318 40 l 379 74 b 494 -11 394 26 431 -11 b 628 115 564 -11 628 40 b 557 83 608 93 583 83 b 492 161 518 83 492 107 l 492 482 b 351 639 492 585 428 639 b 40 421 228 639 89 540 l 192 421 l 192 549 b 378 440 339 590 378 514 z m 378 313 l 378 129 b 258 76 344 97 306 76 b 171 151 208 76 171 103 b 299 279 171 215 215 244 z m 164 886 l 104 811 l 450 811 l 510 886 z "},"ą":{"ha":628,"x_min":0,"x_max":0,"o":"m 378 440 l 378 357 l 219 294 b 50 119 135 261 50 210 b 182 -10 50 39 115 -10 b 354 74 258 -10 318 40 l 379 74 b 503 -11 394 25 436 -11 b 331 -262 410 -85 331 -186 b 439 -371 331 -333 379 -371 b 572 -297 489 -371 525 -342 l 510 -297 b 415 -218 444 -297 415 -272 b 538 -18 415 -143 474 -71 b 628 115 586 22 628 58 b 557 83 608 93 583 83 b 492 161 518 83 492 107 l 492 482 b 351 639 492 585 428 639 b 40 421 228 639 89 540 l 192 421 l 192 549 b 378 440 339 590 378 514 z m 378 313 l 378 129 b 258 76 344 97 306 76 b 171 151 208 76 171 103 b 299 279 171 215 215 244 z "},"å":{"ha":628,"x_min":0,"x_max":0,"o":"m 378 440 l 378 357 l 219 294 b 50 119 135 261 50 210 b 182 -10 50 39 115 -10 b 354 74 258 -10 318 40 l 379 74 b 494 -11 394 26 431 -11 b 628 115 564 -11 628 40 b 557 83 608 93 583 83 b 492 161 518 83 492 107 l 492 482 b 351 639 492 585 428 639 b 40 421 228 639 89 540 l 192 421 l 192 549 b 378 440 339 590 378 514 z m 378 313 l 378 129 b 258 76 344 97 306 76 b 171 151 208 76 171 103 b 299 279 171 215 215 244 z m 299 1015 b 160 876 222 1015 160 953 b 299 739 160 801 222 739 b 438 876 375 739 438 801 b 299 1015 438 953 375 1015 z m 299 963 b 385 876 347 963 385 925 b 299 792 385 829 347 792 b 213 876 250 792 213 829 b 299 963 213 925 250 963 z "},"ã":{"ha":628,"x_min":0,"x_max":0,"o":"m 378 440 l 378 357 l 219 294 b 50 119 135 261 50 210 b 182 -10 50 39 115 -10 b 354 74 258 -10 318 40 l 379 74 b 494 -11 394 26 431 -11 b 628 115 564 -11 628 40 b 557 83 608 93 583 83 b 492 161 518 83 492 107 l 492 482 b 351 639 492 585 428 639 b 40 421 228 639 89 540 l 192 421 l 192 549 b 378 440 339 590 378 514 z m 378 313 l 378 129 b 258 76 344 97 306 76 b 171 151 208 76 171 103 b 299 279 171 215 215 244 z m 449 793 l 553 1021 b 379 894 488 951 424 894 l 164 960 l 60 732 b 233 858 125 801 189 858 z "},"æ":{"ha":943,"x_min":0,"x_max":0,"o":"m 901 193 b 700 96 849 122 783 96 b 465 321 581 96 479 185 l 906 414 b 665 639 899 538 818 639 b 476 560 594 639 528 608 b 351 639 453 613 406 639 b 40 421 228 639 89 540 l 192 421 l 192 549 b 392 435 336 593 389 507 b 369 347 381 407 374 378 l 310 335 b 50 133 131 297 50 239 b 203 -10 50 51 115 -10 b 404 107 288 -10 364 42 l 425 107 b 657 -14 478 32 561 -14 b 901 193 776 -14 878 54 z m 782 433 l 464 367 b 644 571 471 499 553 571 b 782 433 726 571 782 515 z m 168 167 b 317 290 168 231 210 268 l 367 301 b 403 144 367 246 379 192 b 261 76 365 99 311 76 b 168 167 206 76 168 115 z "},"ǽ":{"ha":943,"x_min":0,"x_max":0,"o":"m 901 193 b 700 96 849 122 783 96 b 465 321 581 96 479 185 l 906 414 b 665 639 899 538 818 639 b 476 560 594 639 528 608 b 351 639 453 613 406 639 b 40 421 228 639 89 540 l 192 421 l 192 549 b 392 435 336 593 389 507 b 369 347 381 407 374 378 l 310 335 b 50 133 131 297 50 239 b 203 -10 50 51 115 -10 b 404 107 288 -10 364 42 l 425 107 b 657 -14 478 32 561 -14 b 901 193 776 -14 878 54 z m 782 433 l 464 367 b 644 571 471 499 553 571 b 782 433 726 571 782 515 z m 168 167 b 317 290 168 231 210 268 l 367 301 b 403 144 367 246 379 192 b 261 76 365 99 311 76 b 168 167 206 76 168 115 z m 713 1049 l 574 1049 l 471 683 z "},"ć":{"ha":604,"x_min":0,"x_max":0,"o":"m 463 449 b 554 531 511 449 554 485 b 389 639 554 592 493 639 b 46 289 207 639 46 488 b 328 -14 46 113 172 -14 b 564 186 456 -14 550 74 b 381 92 525 131 458 92 b 157 332 253 92 157 182 b 386 585 157 481 264 585 z m 529 1049 l 390 1049 l 288 683 z "},"č":{"ha":604,"x_min":0,"x_max":0,"o":"m 463 449 b 554 531 511 449 554 485 b 389 639 554 592 493 639 b 46 289 207 639 46 488 b 328 -14 46 113 172 -14 b 564 186 456 -14 550 74 b 381 92 525 131 458 92 b 157 332 253 92 157 182 b 386 585 157 481 264 585 z m 356 825 l 169 1088 l 308 722 l 403 722 l 542 1088 z "},"ç":{"ha":604,"x_min":0,"x_max":0,"o":"m 233 -371 b 439 -210 319 -371 439 -292 b 313 -79 439 -139 376 -107 l 318 -14 b 328 -14 322 -14 325 -14 b 564 186 456 -14 550 74 b 381 92 525 131 458 92 b 157 332 253 92 157 182 b 386 585 157 481 264 585 l 463 449 b 554 531 511 449 554 485 b 389 639 554 592 493 639 b 46 289 207 639 46 488 b 300 -12 46 124 157 1 l 221 -144 b 361 -247 297 -164 361 -196 b 275 -337 361 -292 313 -331 l 218 -257 b 154 -315 183 -257 154 -281 b 233 -371 154 -347 185 -371 z "},"ĉ":{"ha":604,"x_min":0,"x_max":0,"o":"m 463 449 b 554 531 511 449 554 485 b 389 639 554 592 493 639 b 46 289 207 639 46 488 b 328 -14 46 113 172 -14 b 564 186 456 -14 550 74 b 381 92 525 131 458 92 b 157 332 253 92 157 182 b 386 585 157 481 264 585 z m 331 946 l 517 683 l 378 1049 l 283 1049 l 144 683 z "},"ċ":{"ha":604,"x_min":0,"x_max":0,"o":"m 463 449 b 554 531 511 449 554 485 b 389 639 554 592 493 639 b 46 289 207 639 46 488 b 328 -14 46 113 172 -14 b 564 186 456 -14 550 74 b 381 92 525 131 458 92 b 157 332 253 92 157 182 b 386 585 157 481 264 585 z m 340 813 b 425 896 388 813 425 850 b 340 979 425 942 388 979 b 256 896 293 979 256 942 b 340 813 256 850 293 813 z "},"ď":{"ha":936,"x_min":0,"x_max":0,"o":"m 654 118 l 654 1083 l 396 989 l 532 925 l 532 613 b 396 639 485 632 436 639 b 46 292 221 639 46 501 b 318 -14 46 113 161 -14 b 500 57 390 -14 450 18 l 532 57 l 532 -26 l 776 54 z m 532 125 b 410 68 515 96 465 68 b 178 326 276 68 178 164 b 389 581 178 506 278 581 b 532 507 457 581 514 549 z m 928 1069 l 803 1069 l 742 704 z "},"đ":{"ha":783,"x_min":0,"x_max":0,"o":"m 654 118 l 654 769 l 738 769 l 757 819 l 654 819 l 654 1083 l 396 989 l 532 925 l 532 819 l 332 819 l 313 769 l 532 769 l 532 613 b 396 639 485 632 436 639 b 46 292 221 639 46 501 b 318 -14 46 113 161 -14 b 500 57 390 -14 450 18 l 532 57 l 532 -26 l 776 54 z m 532 125 b 410 68 515 96 465 68 b 178 326 276 68 178 164 b 389 581 178 506 278 581 b 532 507 457 581 514 549 z "},"é":{"ha":631,"x_min":0,"x_max":0,"o":"m 581 193 b 379 96 528 122 463 96 b 143 351 251 96 143 199 b 144 378 143 361 143 369 l 589 378 b 344 639 589 519 497 639 b 46 306 181 639 46 479 b 336 -14 46 121 171 -14 b 581 193 456 -14 557 54 z m 324 571 b 461 429 406 571 461 515 l 153 429 b 324 571 178 521 247 571 z m 539 1049 l 400 1049 l 297 683 z "},"ĕ":{"ha":631,"x_min":0,"x_max":0,"o":"m 581 193 b 379 96 528 122 463 96 b 143 351 251 96 143 199 b 144 378 143 361 143 369 l 589 378 b 344 639 589 519 497 639 b 46 306 181 639 46 479 b 336 -14 46 121 171 -14 b 581 193 456 -14 557 54 z m 324 571 b 461 429 406 571 461 515 l 153 429 b 324 571 178 521 247 571 z m 333 803 b 165 1067 251 803 203 904 b 333 711 138 883 208 711 b 501 1067 458 711 529 883 b 333 803 464 904 415 803 z "},"ě":{"ha":631,"x_min":0,"x_max":0,"o":"m 581 193 b 379 96 528 122 463 96 b 143 351 251 96 143 199 b 144 378 143 361 143 369 l 589 378 b 344 639 589 519 497 639 b 46 306 181 639 46 479 b 336 -14 46 121 171 -14 b 581 193 456 -14 557 54 z m 324 571 b 461 429 406 571 461 515 l 153 429 b 324 571 178 521 247 571 z m 333 825 l 147 1088 l 286 722 l 381 722 l 519 1088 z "},"ê":{"ha":631,"x_min":0,"x_max":0,"o":"m 581 193 b 379 96 528 122 463 96 b 143 351 251 96 143 199 b 144 378 143 361 143 369 l 589 378 b 344 639 589 519 497 639 b 46 306 181 639 46 479 b 336 -14 46 121 171 -14 b 581 193 456 -14 557 54 z m 324 571 b 461 429 406 571 461 515 l 153 429 b 324 571 178 521 247 571 z m 339 946 l 525 683 l 386 1049 l 292 1049 l 153 683 z "},"ë":{"ha":631,"x_min":0,"x_max":0,"o":"m 581 193 b 379 96 528 122 463 96 b 143 351 251 96 143 199 b 144 378 143 361 143 369 l 589 378 b 344 639 589 519 497 639 b 46 306 181 639 46 479 b 336 -14 46 121 171 -14 b 581 193 456 -14 557 54 z m 324 571 b 461 429 406 571 461 515 l 153 429 b 324 571 178 521 247 571 z m 460 804 b 539 881 504 804 539 838 b 460 957 539 924 504 957 b 382 881 415 957 382 924 b 460 804 382 838 415 804 z m 203 804 b 282 881 247 804 282 838 b 203 957 282 924 247 957 b 125 881 158 957 125 924 b 203 804 125 838 158 804 z "},"ė":{"ha":631,"x_min":0,"x_max":0,"o":"m 581 193 b 379 96 528 122 463 96 b 143 351 251 96 143 199 b 144 378 143 361 143 369 l 589 378 b 344 639 589 519 497 639 b 46 306 181 639 46 479 b 336 -14 46 121 171 -14 b 581 193 456 -14 557 54 z m 324 571 b 461 429 406 571 461 515 l 153 429 b 324 571 178 521 247 571 z m 338 813 b 422 896 385 813 422 850 b 338 979 422 942 385 979 b 253 896 290 979 253 942 b 338 813 253 850 290 813 z "},"è":{"ha":631,"x_min":0,"x_max":0,"o":"m 581 193 b 379 96 528 122 463 96 b 143 351 251 96 143 199 b 144 378 143 361 143 369 l 589 378 b 344 639 589 519 497 639 b 46 306 181 639 46 479 b 336 -14 46 121 171 -14 b 581 193 456 -14 557 54 z m 324 571 b 461 429 406 571 461 515 l 153 429 b 324 571 178 521 247 571 z m 151 1049 l 393 683 l 290 1049 z "},"ē":{"ha":631,"x_min":0,"x_max":0,"o":"m 581 193 b 379 96 528 122 463 96 b 143 351 251 96 143 199 b 144 378 143 361 143 369 l 589 378 b 344 639 589 519 497 639 b 46 306 181 639 46 479 b 336 -14 46 121 171 -14 b 581 193 456 -14 557 54 z m 324 571 b 461 429 406 571 461 515 l 153 429 b 324 571 178 521 247 571 z m 211 886 l 151 811 l 497 811 l 557 886 z "},"ę":{"ha":631,"x_min":0,"x_max":0,"o":"m 456 8 b 581 193 513 53 567 110 b 379 96 528 122 463 96 b 143 351 251 96 143 199 b 144 378 143 361 143 369 l 589 378 b 344 639 589 519 497 639 b 46 306 181 639 46 479 b 336 -14 46 121 171 -14 b 396 -8 357 -14 376 -11 b 219 -262 311 -72 219 -178 b 328 -371 219 -333 268 -371 b 461 -297 378 -371 414 -342 l 399 -297 b 304 -218 333 -297 304 -272 b 456 8 304 -133 392 -42 z m 324 571 b 461 429 406 571 461 515 l 153 429 b 324 571 178 521 247 571 z "},"ð":{"ha":747,"x_min":0,"x_max":0,"o":"m 144 743 l 394 838 b 561 561 479 744 543 644 l 526 561 b 361 639 492 604 431 639 b 46 313 197 639 46 504 b 374 -14 46 121 203 -14 b 696 403 547 -14 696 147 b 496 876 696 578 617 749 l 600 915 l 600 974 l 453 918 b 71 1083 344 1015 210 1079 b 353 881 163 1043 265 967 l 144 801 z m 181 313 b 374 585 181 468 272 585 b 567 313 475 585 567 471 b 374 40 567 154 475 40 b 181 313 272 40 181 154 z "},"ğ":{"ha":721,"x_min":0,"x_max":0,"o":"m 203 61 l 203 217 b 328 189 240 199 283 189 b 588 414 464 189 588 283 b 550 531 588 457 574 497 l 706 531 l 706 657 l 513 572 b 328 639 464 614 397 639 b 68 414 192 639 68 543 b 186 225 68 332 117 264 b 94 75 132 182 94 131 b 176 -33 94 17 135 -18 l 176 -58 b 6 -237 99 -93 6 -153 b 282 -403 6 -344 132 -403 b 708 -99 494 -403 708 -276 b 490 61 708 8 621 61 z m 196 414 b 328 588 196 511 251 588 b 460 414 404 588 460 511 b 328 240 460 317 404 240 b 196 414 251 240 196 317 z m 435 -50 b 603 -154 535 -50 603 -76 b 346 -339 603 -265 478 -339 b 128 -201 204 -339 128 -279 b 244 -50 128 -122 186 -75 z m 344 803 b 176 1067 263 803 214 904 b 344 711 149 883 219 711 b 513 1067 469 711 540 883 b 344 803 475 904 426 803 z "},"ĝ":{"ha":721,"x_min":0,"x_max":0,"o":"m 203 61 l 203 217 b 328 189 240 199 283 189 b 588 414 464 189 588 283 b 550 531 588 457 574 497 l 706 531 l 706 657 l 513 572 b 328 639 464 614 397 639 b 68 414 192 639 68 543 b 186 225 68 332 117 264 b 94 75 132 182 94 131 b 176 -33 94 17 135 -18 l 176 -58 b 6 -237 99 -93 6 -153 b 282 -403 6 -344 132 -403 b 708 -99 494 -403 708 -276 b 490 61 708 8 621 61 z m 196 414 b 328 588 196 511 251 588 b 460 414 404 588 460 511 b 328 240 460 317 404 240 b 196 414 251 240 196 317 z m 435 -50 b 603 -154 535 -50 603 -76 b 346 -339 603 -265 478 -339 b 128 -201 204 -339 128 -279 b 244 -50 128 -122 186 -75 z m 344 946 l 531 683 l 392 1049 l 297 1049 l 158 683 z "},"ģ":{"ha":721,"x_min":0,"x_max":0,"o":"m 203 61 l 203 217 b 328 189 240 199 283 189 b 588 414 464 189 588 283 b 550 531 588 457 574 497 l 706 531 l 706 657 l 513 572 b 328 639 464 614 397 639 b 68 414 192 639 68 543 b 186 225 68 332 117 264 b 94 75 132 182 94 131 b 176 -33 94 17 135 -18 l 176 -58 b 6 -237 99 -93 6 -153 b 282 -403 6 -344 132 -403 b 708 -99 494 -403 708 -276 b 490 61 708 8 621 61 z m 196 414 b 328 588 196 511 251 588 b 460 414 404 588 460 511 b 328 240 460 317 404 240 b 196 414 251 240 196 317 z m 435 -50 b 603 -154 535 -50 603 -76 b 346 -339 603 -265 478 -339 b 128 -201 204 -339 128 -279 b 244 -50 128 -122 186 -75 z m 428 819 b 400 875 428 843 418 864 l 322 875 b 463 1028 329 926 383 989 b 244 849 350 1028 244 946 b 343 746 244 794 281 746 b 428 819 396 746 428 782 z "},"ġ":{"ha":721,"x_min":0,"x_max":0,"o":"m 203 61 l 203 217 b 328 189 240 199 283 189 b 588 414 464 189 588 283 b 550 531 588 457 574 497 l 706 531 l 706 657 l 513 572 b 328 639 464 614 397 639 b 68 414 192 639 68 543 b 186 225 68 332 117 264 b 94 75 132 182 94 131 b 176 -33 94 17 135 -18 l 176 -58 b 6 -237 99 -93 6 -153 b 282 -403 6 -344 132 -403 b 708 -99 494 -403 708 -276 b 490 61 708 8 621 61 z m 196 414 b 328 588 196 511 251 588 b 460 414 404 588 460 511 b 328 240 460 317 404 240 b 196 414 251 240 196 317 z m 435 -50 b 603 -154 535 -50 603 -76 b 346 -339 603 -265 478 -339 b 128 -201 204 -339 128 -279 b 244 -50 128 -122 186 -75 z m 344 813 b 429 896 392 813 429 850 b 344 979 429 942 392 979 b 260 896 297 979 260 942 b 344 813 260 850 297 813 z "},"ß":{"ha":840,"x_min":0,"x_max":0,"o":"m 557 28 l 482 168 b 392 85 435 168 392 133 b 539 -14 392 31 443 -14 b 796 215 664 -14 796 89 b 511 601 796 408 511 454 b 756 908 511 706 613 814 b 507 1083 731 1017 626 1083 b 136 639 310 1083 167 896 l 15 568 l 136 501 l 136 56 l 36 56 l 36 0 l 258 0 l 258 611 b 479 1032 258 833 321 1032 b 629 882 561 1032 629 953 b 428 543 517 775 428 671 b 696 175 428 365 696 299 b 557 28 696 96 629 33 z "},"ħ":{"ha":781,"x_min":0,"x_max":0,"o":"m 422 769 l 442 819 l 251 819 l 251 1083 l -7 989 l 129 925 l 129 819 l 17 819 l -3 769 l 129 769 l 129 56 l 29 56 l 29 0 l 351 0 l 351 56 l 251 56 l 251 468 b 397 542 288 503 340 542 b 533 400 483 542 533 493 l 533 56 l 433 56 l 433 0 l 756 0 l 756 56 l 656 56 l 656 435 b 489 639 656 556 603 639 b 283 533 396 639 332 581 l 251 533 l 251 769 z "},"ĥ":{"ha":781,"x_min":0,"x_max":0,"o":"m 129 925 l 129 56 l 29 56 l 29 0 l 351 0 l 351 56 l 251 56 l 251 468 b 397 542 288 503 340 542 b 533 400 483 542 533 493 l 533 56 l 433 56 l 433 0 l 756 0 l 756 56 l 656 56 l 656 435 b 489 639 656 556 603 639 b 283 533 396 639 332 581 l 251 533 l 251 1083 l -7 989 z m 325 1351 l 142 1111 l 386 1265 l 631 1111 l 447 1351 z "},"ı":{"ha":389,"x_min":0,"x_max":0,"o":"m 136 56 l 36 56 l 36 0 l 358 0 l 358 56 l 258 56 l 258 653 l 14 558 l 136 481 z "},"í":{"ha":389,"x_min":0,"x_max":0,"o":"m 136 56 l 36 56 l 36 0 l 358 0 l 358 56 l 258 56 l 258 653 l 14 558 l 136 481 z m 375 1049 l 236 1049 l 133 683 z "},"ĭ":{"ha":389,"x_min":0,"x_max":0,"o":"m 136 56 l 36 56 l 36 0 l 358 0 l 358 56 l 258 56 l 258 653 l 14 558 l 136 481 z m 186 803 b 18 1067 104 803 56 904 b 186 711 -10 883 61 711 b 354 1067 311 711 382 883 b 186 803 317 904 268 803 z "},"î":{"ha":389,"x_min":0,"x_max":0,"o":"m 136 56 l 36 56 l 36 0 l 358 0 l 358 56 l 258 56 l 258 653 l 14 558 l 136 481 z m 186 946 l 372 683 l 233 1049 l 139 1049 l 0 683 z "},"ï":{"ha":389,"x_min":0,"x_max":0,"o":"m 136 56 l 36 56 l 36 0 l 358 0 l 358 56 l 258 56 l 258 653 l 14 558 l 136 481 z m 314 804 b 393 881 358 804 393 838 b 314 957 393 924 358 957 b 236 881 269 957 236 924 b 314 804 236 838 269 804 z m 57 804 b 136 881 101 804 136 838 b 57 957 136 924 101 957 b -21 881 13 957 -21 924 b 57 804 -21 838 13 804 z "},"ì":{"ha":389,"x_min":0,"x_max":0,"o":"m 136 56 l 36 56 l 36 0 l 358 0 l 358 56 l 258 56 l 258 653 l 14 558 l 136 481 z m 7 1049 l 249 683 l 146 1049 z "},"ī":{"ha":389,"x_min":0,"x_max":0,"o":"m 136 56 l 36 56 l 36 0 l 358 0 l 358 56 l 258 56 l 258 653 l 14 558 l 136 481 z m 63 886 l 3 811 l 349 811 l 408 886 z "},"į":{"ha":389,"x_min":0,"x_max":0,"o":"m 185 813 b 269 896 232 813 269 850 b 185 979 269 942 232 979 b 100 896 138 979 100 942 b 185 813 100 850 138 813 z m 136 56 l 36 56 l 36 0 l 244 0 b 58 -262 146 -75 58 -182 b 167 -371 58 -333 107 -371 b 300 -297 217 -371 253 -342 l 238 -297 b 143 -218 172 -297 143 -272 b 283 0 143 -150 210 -61 l 358 0 l 358 56 l 258 56 l 258 653 l 14 558 l 136 481 z "},"ĩ":{"ha":389,"x_min":0,"x_max":0,"o":"m 136 56 l 36 56 l 36 0 l 358 0 l 358 56 l 258 56 l 258 653 l 14 558 l 136 481 z m 333 793 l 438 1021 b 264 894 372 951 308 894 l 49 960 l -56 732 b 118 858 10 801 74 858 z "},"ȷ":{"ha":353,"x_min":0,"x_max":0,"o":"m -68 -403 b 250 -72 38 -403 200 -210 l 250 653 l 6 558 l 128 481 l 128 -54 b 26 -304 128 -185 74 -262 l -104 -257 b -146 -326 -133 -274 -146 -300 b -68 -403 -146 -365 -117 -403 z "},"ĵ":{"ha":353,"x_min":0,"x_max":0,"o":"m -68 -403 b 250 -72 38 -403 200 -210 l 250 653 l 6 558 l 128 481 l 128 -54 b 26 -304 128 -185 74 -262 l -104 -257 b -146 -326 -133 -274 -146 -300 b -68 -403 -146 -365 -117 -403 z m 176 946 l 363 683 l 224 1049 l 129 1049 l -10 683 z "},"ķ":{"ha":756,"x_min":0,"x_max":0,"o":"m 129 56 l 29 56 l 29 0 l 351 0 l 351 56 l 251 56 l 251 351 l 583 0 l 756 0 l 382 371 l 636 569 l 721 569 l 721 625 l 413 625 l 413 569 l 528 569 l 528 556 l 299 372 l 251 372 l 251 1083 l -7 989 l 129 925 z m 311 -164 b 339 -219 311 -187 321 -208 l 417 -219 b 276 -372 410 -271 356 -333 b 494 -193 389 -372 494 -290 b 396 -90 494 -139 458 -90 b 311 -164 343 -90 311 -126 z "},"ĸ":{"ha":763,"x_min":0,"x_max":0,"o":"m 136 56 l 36 56 l 36 0 l 358 0 l 358 56 l 258 56 l 258 351 l 590 0 l 763 0 l 389 371 l 643 569 l 728 569 l 728 625 l 419 625 l 419 569 l 535 569 l 535 556 l 306 372 l 258 372 l 258 653 l 14 558 l 136 481 z "},"ĺ":{"ha":383,"x_min":0,"x_max":0,"o":"m 129 56 l 29 56 l 29 0 l 351 0 l 351 56 l 251 56 l 251 1083 l -7 989 l 129 925 z m 471 1260 l 333 1328 l 88 1110 z "},"ľ":{"ha":532,"x_min":0,"x_max":0,"o":"m 129 56 l 29 56 l 29 0 l 351 0 l 351 56 l 251 56 l 251 1083 l -7 989 l 129 925 z m 524 1069 l 399 1069 l 338 704 z "},"ļ":{"ha":383,"x_min":0,"x_max":0,"o":"m 129 56 l 29 56 l 29 0 l 351 0 l 351 56 l 251 56 l 251 1083 l -7 989 l 129 925 z m 100 -164 b 128 -219 100 -187 110 -208 l 206 -219 b 65 -372 199 -271 144 -333 b 283 -193 178 -372 283 -290 b 185 -90 283 -139 247 -90 b 100 -164 132 -90 100 -126 z "},"ŀ":{"ha":557,"x_min":0,"x_max":0,"o":"m 129 56 l 29 56 l 29 0 l 351 0 l 351 56 l 251 56 l 251 1083 l -7 989 l 129 925 z m 454 413 b 539 496 501 413 539 450 b 454 579 539 542 501 579 b 369 496 407 579 369 542 b 454 413 369 450 407 413 z "},"ł":{"ha":439,"x_min":0,"x_max":0,"o":"m 157 56 l 57 56 l 57 0 l 379 0 l 379 56 l 279 56 l 279 478 l 407 561 l 407 624 l 279 540 l 279 1083 l 21 989 l 157 925 l 157 476 l 29 393 l 29 331 l 157 414 z "},"ń":{"ha":788,"x_min":0,"x_max":0,"o":"m 136 481 l 136 56 l 36 56 l 36 0 l 358 0 l 358 56 l 258 56 l 258 468 b 404 542 294 503 347 542 b 540 400 490 542 540 493 l 540 56 l 440 56 l 440 0 l 763 0 l 763 56 l 663 56 l 663 435 b 496 639 663 556 610 639 b 290 533 403 639 339 581 l 258 533 l 258 653 l 14 558 z m 593 1049 l 454 1049 l 351 683 z "},"ň":{"ha":788,"x_min":0,"x_max":0,"o":"m 136 481 l 136 56 l 36 56 l 36 0 l 358 0 l 358 56 l 258 56 l 258 468 b 404 542 294 503 347 542 b 540 400 490 542 540 493 l 540 56 l 440 56 l 440 0 l 763 0 l 763 56 l 663 56 l 663 435 b 496 639 663 556 610 639 b 290 533 403 639 339 581 l 258 533 l 258 653 l 14 558 z m 399 825 l 213 1088 l 351 722 l 446 722 l 585 1088 z "},"ņ":{"ha":788,"x_min":0,"x_max":0,"o":"m 136 481 l 136 56 l 36 56 l 36 0 l 358 0 l 358 56 l 258 56 l 258 468 b 404 542 294 503 347 542 b 540 400 490 542 540 493 l 540 56 l 440 56 l 440 0 l 763 0 l 763 56 l 663 56 l 663 435 b 496 639 663 556 610 639 b 290 533 403 639 339 581 l 258 533 l 258 653 l 14 558 z m 308 -164 b 336 -219 308 -187 318 -208 l 414 -219 b 274 -372 407 -271 353 -333 b 492 -193 386 -372 492 -290 b 393 -90 492 -139 456 -90 b 308 -164 340 -90 308 -126 z "},"ñ":{"ha":788,"x_min":0,"x_max":0,"o":"m 136 481 l 136 56 l 36 56 l 36 0 l 358 0 l 358 56 l 258 56 l 258 468 b 404 542 294 503 347 542 b 540 400 490 542 540 493 l 540 56 l 440 56 l 440 0 l 763 0 l 763 56 l 663 56 l 663 435 b 496 639 663 556 610 639 b 290 533 403 639 339 581 l 258 533 l 258 653 l 14 558 z m 540 793 l 644 1021 b 471 894 579 951 515 894 l 256 960 l 151 732 b 325 858 217 801 281 858 z "},"ŋ":{"ha":765,"x_min":0,"x_max":0,"o":"m 663 -72 l 663 435 b 496 639 663 556 610 639 b 290 533 403 639 339 581 l 258 533 l 258 653 l 14 558 l 136 481 l 136 56 l 36 56 l 36 0 l 358 0 l 358 56 l 258 56 l 258 468 b 404 542 294 503 347 542 b 540 400 490 542 540 493 l 540 -54 b 439 -304 540 -185 486 -262 l 308 -257 b 267 -326 279 -274 267 -300 b 344 -403 267 -365 296 -403 b 663 -72 450 -403 613 -210 z "},"ó":{"ha":747,"x_min":0,"x_max":0,"o":"m 46 313 b 374 -14 46 121 203 -14 b 701 313 544 -14 701 121 b 374 639 701 504 544 639 b 46 313 203 639 46 504 z m 181 313 b 374 585 181 468 272 585 b 567 313 475 585 567 471 b 374 40 567 154 475 40 b 181 313 272 40 181 154 z m 550 1049 l 411 1049 l 308 683 z "},"ŏ":{"ha":747,"x_min":0,"x_max":0,"o":"m 46 313 b 374 -14 46 121 203 -14 b 701 313 544 -14 701 121 b 374 639 701 504 544 639 b 46 313 203 639 46 504 z m 181 313 b 374 585 181 468 272 585 b 567 313 475 585 567 471 b 374 40 567 154 475 40 b 181 313 272 40 181 154 z m 374 803 b 206 1067 292 803 243 904 b 374 711 178 883 249 711 b 542 1067 499 711 569 883 b 374 803 504 904 456 803 z "},"ô":{"ha":747,"x_min":0,"x_max":0,"o":"m 46 313 b 374 -14 46 121 203 -14 b 701 313 544 -14 701 121 b 374 639 701 504 544 639 b 46 313 203 639 46 504 z m 181 313 b 374 585 181 468 272 585 b 567 313 475 585 567 471 b 374 40 567 154 475 40 b 181 313 272 40 181 154 z m 374 946 l 560 683 l 421 1049 l 326 1049 l 188 683 z "},"ö":{"ha":747,"x_min":0,"x_max":0,"o":"m 46 313 b 374 -14 46 121 203 -14 b 701 313 544 -14 701 121 b 374 639 701 504 544 639 b 46 313 203 639 46 504 z m 181 313 b 374 585 181 468 272 585 b 567 313 475 585 567 471 b 374 40 567 154 475 40 b 181 313 272 40 181 154 z m 501 804 b 581 881 546 804 581 838 b 501 957 581 924 546 957 b 424 881 457 957 424 924 b 501 804 424 838 457 804 z m 244 804 b 324 881 289 804 324 838 b 244 957 324 924 289 957 b 167 881 200 957 167 924 b 244 804 167 838 200 804 z "},"ò":{"ha":747,"x_min":0,"x_max":0,"o":"m 46 313 b 374 -14 46 121 203 -14 b 701 313 544 -14 701 121 b 374 639 701 504 544 639 b 46 313 203 639 46 504 z m 181 313 b 374 585 181 468 272 585 b 567 313 475 585 567 471 b 374 40 567 154 475 40 b 181 313 272 40 181 154 z m 197 1049 l 439 683 l 336 1049 z "},"ő":{"ha":747,"x_min":0,"x_max":0,"o":"m 46 313 b 374 -14 46 121 203 -14 b 701 313 544 -14 701 121 b 374 639 701 504 544 639 b 46 313 203 639 46 504 z m 181 313 b 374 585 181 468 272 585 b 567 313 475 585 567 471 b 374 40 567 154 475 40 b 181 313 272 40 181 154 z m 492 1049 l 367 1049 l 264 683 z m 686 1049 l 561 1049 l 458 683 z "},"ō":{"ha":747,"x_min":0,"x_max":0,"o":"m 46 313 b 374 -14 46 121 203 -14 b 701 313 544 -14 701 121 b 374 639 701 504 544 639 b 46 313 203 639 46 504 z m 181 313 b 374 585 181 468 272 585 b 567 313 475 585 567 471 b 374 40 567 154 475 40 b 181 313 272 40 181 154 z m 231 886 l 171 811 l 517 811 l 576 886 z "},"ø":{"ha":747,"x_min":0,"x_max":0,"o":"m 46 313 b 168 58 46 206 94 115 l 79 -69 l 142 -69 l 211 29 b 374 -14 260 1 315 -14 b 701 313 544 -14 701 121 b 583 564 701 418 654 506 l 668 685 l 606 685 l 542 593 b 374 639 492 622 433 639 b 46 313 203 639 46 504 z m 181 313 b 374 585 181 468 272 585 b 494 525 418 585 461 563 l 225 139 b 181 313 197 185 181 244 z m 567 313 b 374 40 567 154 475 40 b 257 96 331 40 290 61 l 525 481 b 567 313 551 436 567 378 z "},"ǿ":{"ha":747,"x_min":0,"x_max":0,"o":"m 46 313 b 168 58 46 206 94 115 l 79 -69 l 142 -69 l 211 29 b 374 -14 260 1 315 -14 b 701 313 544 -14 701 121 b 583 564 701 418 654 506 l 668 685 l 606 685 l 542 593 b 374 639 492 622 433 639 b 46 313 203 639 46 504 z m 181 313 b 374 585 181 468 272 585 b 494 525 418 585 461 563 l 225 139 b 181 313 197 185 181 244 z m 567 313 b 374 40 567 154 475 40 b 257 96 331 40 290 61 l 525 481 b 567 313 551 436 567 378 z m 550 1049 l 411 1049 l 308 683 z "},"õ":{"ha":747,"x_min":0,"x_max":0,"o":"m 46 313 b 374 -14 46 121 203 -14 b 701 313 544 -14 701 121 b 374 639 701 504 544 639 b 46 313 203 639 46 504 z m 181 313 b 374 585 181 468 272 585 b 567 313 475 585 567 471 b 374 40 567 154 475 40 b 181 313 272 40 181 154 z m 528 793 l 632 1021 b 458 894 567 951 503 894 l 243 960 l 139 732 b 313 858 204 801 268 858 z "},"œ":{"ha":1163,"x_min":0,"x_max":0,"o":"m 622 506 b 374 639 560 589 483 639 b 46 313 203 639 46 504 b 374 -14 46 121 203 -14 b 619 111 476 -14 557 32 l 647 111 b 868 -14 700 33 778 -14 b 1113 193 988 -14 1089 54 b 911 96 1060 122 994 96 b 675 351 783 96 675 199 b 676 378 675 361 675 369 l 1121 378 b 876 639 1121 519 1029 639 b 649 506 788 639 700 590 z m 181 313 b 374 585 181 468 272 585 b 567 313 475 585 567 471 b 374 40 567 154 475 40 b 181 313 272 40 181 154 z m 856 571 b 993 429 938 571 993 515 l 685 429 b 856 571 710 521 779 571 z "},"ŕ":{"ha":556,"x_min":0,"x_max":0,"o":"m 136 481 l 136 56 l 36 56 l 36 0 l 400 0 l 400 56 l 258 56 l 258 461 l 368 543 l 476 478 b 542 564 514 493 542 526 b 463 639 542 608 507 639 b 288 531 403 639 351 589 l 258 531 l 258 653 l 14 558 z m 508 1049 l 369 1049 l 267 683 z "},"ř":{"ha":556,"x_min":0,"x_max":0,"o":"m 136 481 l 136 56 l 36 56 l 36 0 l 400 0 l 400 56 l 258 56 l 258 461 l 368 543 l 476 478 b 542 564 514 493 542 526 b 463 639 542 608 507 639 b 288 531 403 639 351 589 l 258 531 l 258 653 l 14 558 z m 292 825 l 106 1088 l 244 722 l 339 722 l 478 1088 z "},"ŗ":{"ha":556,"x_min":0,"x_max":0,"o":"m 136 481 l 136 56 l 36 56 l 36 0 l 400 0 l 400 56 l 258 56 l 258 461 l 368 543 l 476 478 b 542 564 514 493 542 526 b 463 639 542 608 507 639 b 288 531 403 639 351 589 l 258 531 l 258 653 l 14 558 z m 115 -164 b 143 -219 115 -187 125 -208 l 221 -219 b 81 -372 214 -271 160 -333 b 299 -193 193 -372 299 -290 b 200 -90 299 -139 263 -90 b 115 -164 147 -90 115 -126 z "},"ś":{"ha":540,"x_min":0,"x_max":0,"o":"m 54 57 b 249 -14 92 18 168 -14 b 481 185 376 -14 481 72 b 172 493 481 392 172 353 b 261 578 172 547 211 578 b 458 407 333 578 400 506 l 458 639 l 389 590 b 264 639 361 617 313 639 b 68 456 164 639 68 567 b 371 149 68 251 371 299 b 264 50 371 85 322 50 b 54 229 189 50 108 103 z m 478 1049 l 339 1049 l 236 683 z "},"š":{"ha":540,"x_min":0,"x_max":0,"o":"m 54 57 b 249 -14 92 18 168 -14 b 481 185 376 -14 481 72 b 172 493 481 392 172 353 b 261 578 172 547 211 578 b 458 407 333 578 400 506 l 458 639 l 389 590 b 264 639 361 617 313 639 b 68 456 164 639 68 567 b 371 149 68 251 371 299 b 264 50 371 85 322 50 b 54 229 189 50 108 103 z m 268 825 l 82 1088 l 221 722 l 315 722 l 454 1088 z "},"ş":{"ha":540,"x_min":0,"x_max":0,"o":"m 54 57 b 228 -12 89 21 154 -8 l 149 -144 b 289 -247 225 -164 289 -196 b 203 -337 289 -292 240 -331 l 146 -257 b 82 -315 111 -257 82 -281 b 161 -371 82 -347 113 -371 b 367 -210 247 -371 367 -292 b 240 -79 367 -139 304 -107 l 246 -14 l 249 -14 b 481 185 376 -14 481 72 b 172 493 481 392 172 353 b 261 578 172 547 211 578 b 458 407 333 578 400 506 l 458 639 l 389 590 b 264 639 361 617 313 639 b 68 456 164 639 68 567 b 371 149 68 251 371 299 b 264 50 371 85 322 50 b 54 229 189 50 108 103 z "},"ŝ":{"ha":540,"x_min":0,"x_max":0,"o":"m 54 57 b 249 -14 92 18 168 -14 b 481 185 376 -14 481 72 b 172 493 481 392 172 353 b 261 578 172 547 211 578 b 458 407 333 578 400 506 l 458 639 l 389 590 b 264 639 361 617 313 639 b 68 456 164 639 68 567 b 371 149 68 251 371 299 b 264 50 371 85 322 50 b 54 229 189 50 108 103 z m 268 946 l 454 683 l 315 1049 l 221 1049 l 82 683 z "},"ș":{"ha":540,"x_min":0,"x_max":0,"o":"m 54 57 b 249 -14 92 18 168 -14 b 481 185 376 -14 481 72 b 172 493 481 392 172 353 b 261 578 172 547 211 578 b 458 407 333 578 400 506 l 458 639 l 389 590 b 264 639 361 617 313 639 b 68 456 164 639 68 567 b 371 149 68 251 371 299 b 264 50 371 85 322 50 b 54 229 189 50 108 103 z m 165 -164 b 193 -219 165 -187 175 -208 l 271 -219 b 131 -372 264 -271 210 -333 b 349 -193 243 -372 349 -290 b 250 -90 349 -139 313 -90 b 165 -164 197 -90 165 -126 z "},"ŧ":{"ha":529,"x_min":0,"x_max":0,"o":"m 439 339 l 458 389 l 257 389 l 257 538 l 456 538 l 497 607 l 257 607 l 257 758 l 26 564 l 146 518 l 144 389 l 33 389 l 14 339 l 143 339 l 140 157 b 310 -14 140 44 218 -14 b 515 140 406 -14 482 39 b 374 79 471 97 426 79 b 257 210 310 79 257 117 l 257 339 z "},"ť":{"ha":513,"x_min":0,"x_max":0,"o":"m 10 564 l 129 518 l 124 157 b 293 -14 124 44 201 -14 b 499 140 389 -14 465 39 b 357 79 454 97 410 79 b 240 210 293 79 240 117 l 240 538 l 439 538 l 481 607 l 240 607 l 240 758 z m 503 1047 l 378 1047 l 317 682 z "},"ţ":{"ha":513,"x_min":0,"x_max":0,"o":"m 183 -371 b 389 -210 269 -371 389 -292 b 263 -79 389 -139 326 -107 l 268 -12 b 293 -14 276 -14 285 -14 b 499 140 389 -14 465 39 b 357 79 454 97 410 79 b 240 210 293 79 240 117 l 240 538 l 439 538 l 481 607 l 240 607 l 240 758 l 10 564 l 129 518 l 124 157 b 251 -10 124 63 179 6 l 171 -144 b 311 -247 247 -164 311 -196 b 225 -337 311 -292 263 -331 l 168 -257 b 104 -315 133 -257 104 -281 b 183 -371 104 -347 135 -371 z "},"ț":{"ha":513,"x_min":0,"x_max":0,"o":"m 10 564 l 129 518 l 124 157 b 293 -14 124 44 201 -14 b 499 140 389 -14 465 39 b 357 79 454 97 410 79 b 240 210 293 79 240 117 l 240 538 l 439 538 l 481 607 l 240 607 l 240 758 z m 174 -164 b 201 -219 174 -187 183 -208 l 279 -219 b 139 -372 272 -271 218 -333 b 357 -193 251 -372 357 -290 b 258 -90 357 -139 321 -90 b 174 -164 206 -90 174 -126 z "},"þ":{"ha":782,"x_min":0,"x_max":0,"o":"m 128 925 l 128 -333 l 28 -333 l 28 -389 l 392 -389 l 392 -333 l 250 -333 l 250 13 b 397 -14 297 -7 346 -14 b 736 333 561 -14 736 124 b 464 639 736 513 626 639 b 276 564 392 639 326 603 l 250 564 l 250 1083 l -8 989 z m 250 117 l 250 500 b 372 557 267 529 317 557 b 604 299 511 557 604 461 b 393 44 604 119 504 44 b 250 117 326 44 272 72 z "},"ú":{"ha":771,"x_min":0,"x_max":0,"o":"m 518 -26 l 763 54 l 640 118 l 640 633 l 410 618 l 410 563 l 518 563 l 518 125 b 396 68 501 96 451 68 b 247 225 310 68 247 122 l 247 633 l 17 618 l 17 563 l 125 563 l 125 190 b 308 -14 125 69 190 -14 b 486 60 376 -14 436 21 l 518 60 z m 569 1049 l 431 1049 l 328 683 z "},"ŭ":{"ha":771,"x_min":0,"x_max":0,"o":"m 518 -26 l 763 54 l 640 118 l 640 633 l 410 618 l 410 563 l 518 563 l 518 125 b 396 68 501 96 451 68 b 247 225 310 68 247 122 l 247 633 l 17 618 l 17 563 l 125 563 l 125 190 b 308 -14 125 69 190 -14 b 486 60 376 -14 436 21 l 518 60 z m 367 803 b 199 1067 285 803 236 904 b 367 711 171 883 242 711 b 535 1067 492 711 563 883 b 367 803 497 904 449 803 z "},"û":{"ha":771,"x_min":0,"x_max":0,"o":"m 518 -26 l 763 54 l 640 118 l 640 633 l 410 618 l 410 563 l 518 563 l 518 125 b 396 68 501 96 451 68 b 247 225 310 68 247 122 l 247 633 l 17 618 l 17 563 l 125 563 l 125 190 b 308 -14 125 69 190 -14 b 486 60 376 -14 436 21 l 518 60 z m 367 946 l 553 683 l 414 1049 l 319 1049 l 181 683 z "},"ü":{"ha":771,"x_min":0,"x_max":0,"o":"m 518 -26 l 763 54 l 640 118 l 640 633 l 410 618 l 410 563 l 518 563 l 518 125 b 396 68 501 96 451 68 b 247 225 310 68 247 122 l 247 633 l 17 618 l 17 563 l 125 563 l 125 190 b 308 -14 125 69 190 -14 b 486 60 376 -14 436 21 l 518 60 z m 508 804 b 588 881 553 804 588 838 b 508 957 588 924 553 957 b 431 881 464 957 431 924 b 508 804 431 838 464 804 z m 251 804 b 331 881 296 804 331 838 b 251 957 331 924 296 957 b 174 881 207 957 174 924 b 251 804 174 838 207 804 z "},"ù":{"ha":771,"x_min":0,"x_max":0,"o":"m 518 -26 l 763 54 l 640 118 l 640 633 l 410 618 l 410 563 l 518 563 l 518 125 b 396 68 501 96 451 68 b 247 225 310 68 247 122 l 247 633 l 17 618 l 17 563 l 125 563 l 125 190 b 308 -14 125 69 190 -14 b 486 60 376 -14 436 21 l 518 60 z m 210 1049 l 451 683 l 349 1049 z "},"ű":{"ha":771,"x_min":0,"x_max":0,"o":"m 518 -26 l 763 54 l 640 118 l 640 633 l 410 618 l 410 563 l 518 563 l 518 125 b 396 68 501 96 451 68 b 247 225 310 68 247 122 l 247 633 l 17 618 l 17 563 l 125 563 l 125 190 b 308 -14 125 69 190 -14 b 486 60 376 -14 436 21 l 518 60 z m 478 1049 l 353 1049 l 250 683 z m 672 1049 l 547 1049 l 444 683 z "},"ū":{"ha":771,"x_min":0,"x_max":0,"o":"m 518 -26 l 763 54 l 640 118 l 640 633 l 410 618 l 410 563 l 518 563 l 518 125 b 396 68 501 96 451 68 b 247 225 310 68 247 122 l 247 633 l 17 618 l 17 563 l 125 563 l 125 190 b 308 -14 125 69 190 -14 b 486 60 376 -14 436 21 l 518 60 z m 251 886 l 192 811 l 538 811 l 597 886 z "},"ų":{"ha":771,"x_min":0,"x_max":0,"o":"m 567 -297 l 504 -297 b 410 -215 439 -297 410 -272 b 624 8 410 -139 476 -40 l 763 54 l 640 118 l 640 633 l 410 618 l 410 563 l 518 563 l 518 125 b 396 68 501 96 451 68 b 247 225 310 68 247 122 l 247 633 l 17 618 l 17 563 l 125 563 l 125 190 b 308 -14 125 69 190 -14 b 486 60 376 -14 436 21 l 518 60 l 518 -10 b 325 -262 407 -79 325 -179 b 433 -371 325 -333 374 -371 b 567 -297 483 -371 519 -342 z "},"ů":{"ha":771,"x_min":0,"x_max":0,"o":"m 518 -26 l 763 54 l 640 118 l 640 633 l 410 618 l 410 563 l 518 563 l 518 125 b 396 68 501 96 451 68 b 247 225 310 68 247 122 l 247 633 l 17 618 l 17 563 l 125 563 l 125 190 b 308 -14 125 69 190 -14 b 486 60 376 -14 436 21 l 518 60 z m 381 1015 b 242 876 304 1015 242 953 b 381 739 242 801 304 739 b 519 876 457 739 519 801 b 381 1015 519 953 457 1015 z m 381 963 b 467 876 429 963 467 925 b 381 792 467 829 429 792 b 294 876 332 792 294 829 b 381 963 294 925 332 963 z "},"ũ":{"ha":771,"x_min":0,"x_max":0,"o":"m 518 -26 l 763 54 l 640 118 l 640 633 l 410 618 l 410 563 l 518 563 l 518 125 b 396 68 501 96 451 68 b 247 225 310 68 247 122 l 247 633 l 17 618 l 17 563 l 125 563 l 125 190 b 308 -14 125 69 190 -14 b 486 60 376 -14 436 21 l 518 60 z m 542 793 l 646 1021 b 472 894 581 951 517 894 l 257 960 l 153 732 b 326 858 218 801 282 858 z "},"ẃ":{"ha":988,"x_min":0,"x_max":0,"o":"m 847 569 l 688 164 l 546 569 l 657 569 l 657 625 l 364 625 l 364 569 l 428 569 l 479 433 l 358 161 l 204 569 l 289 569 l 289 625 l 10 625 l 10 569 l 74 569 l 325 -42 l 506 365 l 658 -42 l 914 569 l 978 569 l 978 625 l 732 625 l 732 569 z m 707 1049 l 568 1049 l 465 683 z "},"ŵ":{"ha":988,"x_min":0,"x_max":0,"o":"m 847 569 l 688 164 l 546 569 l 657 569 l 657 625 l 364 625 l 364 569 l 428 569 l 479 433 l 358 161 l 204 569 l 289 569 l 289 625 l 10 625 l 10 569 l 74 569 l 325 -42 l 506 365 l 658 -42 l 914 569 l 978 569 l 978 625 l 732 625 l 732 569 z m 501 946 l 688 683 l 549 1049 l 454 1049 l 315 683 z "},"ẁ":{"ha":988,"x_min":0,"x_max":0,"o":"m 847 569 l 688 164 l 546 569 l 657 569 l 657 625 l 364 625 l 364 569 l 428 569 l 479 433 l 358 161 l 204 569 l 289 569 l 289 625 l 10 625 l 10 569 l 74 569 l 325 -42 l 506 365 l 658 -42 l 914 569 l 978 569 l 978 625 l 732 625 l 732 569 z m 319 1049 l 561 683 l 458 1049 z "},"ẅ":{"ha":988,"x_min":0,"x_max":0,"o":"m 847 569 l 688 164 l 546 569 l 657 569 l 657 625 l 364 625 l 364 569 l 428 569 l 479 433 l 358 161 l 204 569 l 289 569 l 289 625 l 10 625 l 10 569 l 74 569 l 325 -42 l 506 365 l 658 -42 l 914 569 l 978 569 l 978 625 l 732 625 l 732 569 z m 622 804 b 701 881 667 804 701 838 b 622 957 701 924 667 957 b 544 881 578 957 544 924 b 622 804 544 838 578 804 z m 365 804 b 444 881 410 804 444 838 b 365 957 444 924 410 957 b 288 881 321 957 288 924 b 365 804 288 838 321 804 z "},"ý":{"ha":689,"x_min":0,"x_max":0,"o":"m 549 569 l 368 103 l 208 569 l 319 569 l 319 625 l 10 625 l 10 569 l 74 569 l 301 -40 l 197 -297 l 71 -251 b 40 -318 50 -271 40 -294 b 131 -403 40 -361 74 -403 b 267 -283 206 -403 240 -347 l 615 569 l 679 569 l 679 625 l 433 625 l 433 569 z m 581 1049 l 442 1049 l 339 683 z "},"ŷ":{"ha":689,"x_min":0,"x_max":0,"o":"m 549 569 l 368 103 l 208 569 l 319 569 l 319 625 l 10 625 l 10 569 l 74 569 l 301 -40 l 197 -297 l 71 -251 b 40 -318 50 -271 40 -294 b 131 -403 40 -361 74 -403 b 267 -283 206 -403 240 -347 l 615 569 l 679 569 l 679 625 l 433 625 l 433 569 z m 368 946 l 554 683 l 415 1049 l 321 1049 l 182 683 z "},"ÿ":{"ha":689,"x_min":0,"x_max":0,"o":"m 549 569 l 368 103 l 208 569 l 319 569 l 319 625 l 10 625 l 10 569 l 74 569 l 301 -40 l 197 -297 l 71 -251 b 40 -318 50 -271 40 -294 b 131 -403 40 -361 74 -403 b 267 -283 206 -403 240 -347 l 615 569 l 679 569 l 679 625 l 433 625 l 433 569 z m 500 804 b 579 881 544 804 579 838 b 500 957 579 924 544 957 b 422 881 456 957 422 924 b 500 804 422 838 456 804 z m 243 804 b 322 881 288 804 322 838 b 243 957 322 924 288 957 b 165 881 199 957 165 924 b 243 804 165 838 199 804 z "},"ỳ":{"ha":689,"x_min":0,"x_max":0,"o":"m 549 569 l 368 103 l 208 569 l 319 569 l 319 625 l 10 625 l 10 569 l 74 569 l 301 -40 l 197 -297 l 71 -251 b 40 -318 50 -271 40 -294 b 131 -403 40 -361 74 -403 b 267 -283 206 -403 240 -347 l 615 569 l 679 569 l 679 625 l 433 625 l 433 569 z m 179 1049 l 421 683 l 318 1049 z "},"ź":{"ha":635,"x_min":0,"x_max":0,"o":"m 194 51 l 589 625 l 153 625 l 100 681 l 44 404 l 217 574 l 424 574 l 21 0 l 575 0 l 607 264 l 453 51 z m 518 1049 l 379 1049 l 276 683 z "},"ž":{"ha":635,"x_min":0,"x_max":0,"o":"m 194 51 l 589 625 l 153 625 l 100 681 l 44 404 l 217 574 l 424 574 l 21 0 l 575 0 l 607 264 l 453 51 z m 329 825 l 143 1088 l 282 722 l 376 722 l 515 1088 z "},"ż":{"ha":635,"x_min":0,"x_max":0,"o":"m 194 51 l 589 625 l 153 625 l 100 681 l 44 404 l 217 574 l 424 574 l 21 0 l 575 0 l 607 264 l 453 51 z m 329 813 b 414 896 376 813 414 850 b 329 979 414 942 376 979 b 244 896 282 979 244 942 b 329 813 244 850 282 813 z "},"º":{"ha":579,"x_min":0,"x_max":0,"o":"m 50 732 b 290 496 50 593 164 496 b 529 732 415 496 529 593 b 290 969 529 871 415 969 b 50 732 164 969 50 871 z m 158 732 b 290 931 158 846 221 931 b 421 732 360 931 421 847 b 290 535 421 618 360 535 b 158 732 221 535 158 618 z m 133 399 l 101 339 l 446 339 l 478 399 z "},"ª":{"ha":497,"x_min":0,"x_max":0,"o":"m 290 821 l 290 764 l 178 719 b 53 592 114 694 53 657 b 150 497 53 533 100 497 b 275 560 206 497 249 533 l 292 560 b 379 496 304 524 332 496 b 481 592 433 496 481 535 b 431 568 467 576 449 568 b 385 624 403 568 385 586 l 385 850 b 278 968 385 926 338 968 b 49 811 192 968 83 900 l 160 811 l 160 903 b 290 821 263 929 290 876 z m 290 731 l 290 597 b 211 564 268 576 242 564 b 149 618 175 564 149 582 b 238 708 149 663 181 683 z m 96 399 l 64 339 l 408 339 l 440 399 z "},"ﬀ":{"ha":861,"x_min":0,"x_max":0,"o":"m 136 56 l 36 56 l 36 0 l 358 0 l 358 56 l 258 56 l 258 538 l 557 538 l 557 56 l 457 56 l 457 0 l 821 0 l 821 56 l 679 56 l 679 538 l 838 538 l 879 607 l 679 607 b 864 1018 679 829 739 979 l 975 925 b 1054 999 1021 925 1054 957 b 942 1083 1054 1047 1008 1083 b 557 639 744 1083 588 896 l 557 607 l 258 607 b 399 992 258 808 299 949 l 493 904 b 569 976 538 904 569 936 b 464 1056 569 1022 532 1056 b 136 639 297 1056 167 875 l 15 568 l 136 501 z "},"ﬁ":{"ha":810,"x_min":0,"x_max":0,"o":"m 136 56 l 36 56 l 36 0 l 358 0 l 358 56 l 258 56 l 258 538 l 557 538 l 557 56 l 457 56 l 457 0 l 779 0 l 779 56 l 679 56 l 679 653 l 561 607 l 258 607 b 460 1022 258 818 333 978 l 576 908 b 668 993 625 908 668 949 b 547 1083 668 1047 621 1083 b 136 639 338 1083 167 896 l 15 568 l 136 501 z "},"ﬃ":{"ha":1231,"x_min":0,"x_max":0,"o":"m 557 56 l 457 56 l 457 0 l 779 0 l 779 56 l 679 56 l 679 538 l 978 538 l 978 56 l 878 56 l 878 0 l 1200 0 l 1200 56 l 1100 56 l 1100 653 l 982 607 l 679 607 b 881 1022 679 818 754 978 l 997 908 b 1089 993 1046 908 1089 949 b 968 1083 1089 1047 1042 1083 b 557 639 758 1083 588 896 l 557 607 l 258 607 b 399 992 258 808 299 949 l 493 904 b 569 976 538 904 569 936 b 464 1056 569 1022 532 1056 b 136 639 297 1056 167 875 l 15 568 l 136 501 l 136 56 l 36 56 l 36 0 l 358 0 l 358 56 l 258 56 l 258 538 l 557 538 z "},"ﬂ":{"ha":811,"x_min":0,"x_max":0,"o":"m 458 607 l 258 607 b 482 1017 258 843 333 1017 b 557 990 514 1017 539 1007 l 557 56 l 457 56 l 457 0 l 779 0 l 779 56 l 679 56 l 679 1057 b 535 1083 628 1075 596 1083 b 136 639 324 1083 167 896 l 15 568 l 136 501 l 136 56 l 36 56 l 36 0 l 358 0 l 358 56 l 258 56 l 258 538 l 417 538 z "},"ﬄ":{"ha":1232,"x_min":0,"x_max":0,"o":"m 978 56 l 878 56 l 878 0 l 1200 0 l 1200 56 l 1100 56 l 1100 1057 b 956 1083 1049 1075 1017 1083 b 557 639 744 1083 588 896 l 557 607 l 258 607 b 399 992 258 808 299 949 l 493 904 b 569 976 538 904 569 936 b 464 1056 569 1022 532 1056 b 136 639 297 1056 167 875 l 15 568 l 136 501 l 136 56 l 36 56 l 36 0 l 358 0 l 358 56 l 258 56 l 258 538 l 557 538 l 557 56 l 457 56 l 457 0 l 779 0 l 779 56 l 679 56 l 679 538 l 838 538 l 879 607 l 679 607 b 903 1017 679 843 754 1017 b 978 990 935 1017 960 1007 z "},"&":{"ha":1163,"x_min":0,"x_max":0,"o":"m 1063 0 l 788 271 b 1010 615 863 372 936 492 l 1139 615 l 1139 678 l 781 678 l 781 615 l 918 615 l 918 588 b 743 314 863 494 806 397 l 475 578 l 475 608 b 639 793 571 642 639 706 b 435 972 639 896 542 972 b 215 757 306 972 215 868 b 296 582 215 686 249 633 l 296 551 b 78 258 193 493 78 407 b 372 -14 78 90 219 -14 b 708 172 499 -14 607 60 l 883 0 z m 318 807 b 428 919 318 881 369 919 b 540 793 499 919 540 856 b 433 619 540 725 507 653 b 318 807 372 678 318 738 z m 194 307 b 340 536 194 421 264 490 b 389 489 357 521 372 506 l 663 219 b 419 100 590 147 511 100 b 194 307 301 100 194 174 z "},"`":{"ha":694,"x_min":0,"x_max":0,"o":"m 226 1049 l 468 683 l 365 1049 z "},"´":{"ha":694,"x_min":0,"x_max":0,"o":"m 468 1049 l 329 1049 l 226 683 z "},"ˆ":{"ha":694,"x_min":0,"x_max":0,"o":"m 347 946 l 533 683 l 394 1049 l 300 1049 l 161 683 z "},"˜":{"ha":694,"x_min":0,"x_max":0,"o":"m 489 793 l 593 1021 b 419 894 528 951 464 894 l 204 960 l 100 732 b 274 858 165 801 229 858 z "},"¯":{"ha":694,"x_min":0,"x_max":0,"o":"m 204 886 l 144 811 l 490 811 l 550 886 z "},"˘":{"ha":694,"x_min":0,"x_max":0,"o":"m 347 803 b 179 1067 265 803 217 904 b 347 711 151 883 222 711 b 515 1067 472 711 543 883 b 347 803 478 904 429 803 z "},"˙":{"ha":694,"x_min":0,"x_max":0,"o":"m 347 813 b 432 896 394 813 432 850 b 347 979 432 942 394 979 b 263 896 300 979 263 942 b 347 813 263 850 300 813 z "},"¨":{"ha":694,"x_min":0,"x_max":0,"o":"m 475 804 b 554 881 519 804 554 838 b 475 957 554 924 519 957 b 397 881 431 957 397 924 b 475 804 397 838 431 804 z m 218 804 b 297 881 263 804 297 838 b 218 957 297 924 263 957 b 140 881 174 957 140 924 b 218 804 140 838 174 804 z "},"˚":{"ha":694,"x_min":0,"x_max":0,"o":"m 347 1015 b 208 876 271 1015 208 953 b 347 739 208 801 271 739 b 486 876 424 739 486 801 b 347 1015 486 953 424 1015 z m 347 963 b 433 876 396 963 433 925 b 347 792 433 829 396 792 b 261 876 299 792 261 829 b 347 963 261 925 299 963 z "},"˝":{"ha":694,"x_min":0,"x_max":0,"o":"m 364 1049 l 239 1049 l 136 683 z m 558 1049 l 433 1049 l 331 683 z "},"ˇ":{"ha":694,"x_min":0,"x_max":0,"o":"m 347 825 l 161 1088 l 300 722 l 394 722 l 533 1088 z "},"":{"ha":694,"x_min":0,"x_max":0,"o":"m 269 -164 b 297 -219 269 -187 279 -208 l 375 -219 b 235 -372 368 -271 314 -333 b 453 -193 347 -372 453 -290 b 354 -90 453 -139 417 -90 b 269 -164 301 -90 269 -126 z "},"¸":{"ha":694,"x_min":0,"x_max":0,"o":"m 243 -371 b 449 -210 329 -371 449 -292 b 322 -79 449 -139 386 -107 l 332 25 l 231 -144 b 371 -247 307 -164 371 -196 b 285 -337 371 -292 322 -331 l 228 -257 b 164 -315 193 -257 164 -281 b 243 -371 164 -347 194 -371 z "},"˛":{"ha":694,"x_min":0,"x_max":0,"o":"m 443 38 b 201 -262 324 -35 201 -167 b 310 -371 201 -333 250 -371 b 443 -297 360 -371 396 -342 l 381 -297 b 286 -218 315 -297 286 -272 b 453 21 286 -142 369 -39 z "},".":{"ha":374,"x_min":0,"x_max":0,"o":"m 281 79 b 186 175 281 132 242 175 b 93 79 133 175 93 132 b 186 -12 93 29 133 -12 b 281 79 242 -12 281 29 z "},",":{"ha":374,"x_min":0,"x_max":0,"o":"m 76 90 b 111 22 76 63 89 35 l 207 22 b 224 -36 219 7 224 -11 b 39 -286 224 -139 135 -228 b 311 -3 175 -286 311 -157 b 172 178 311 97 261 178 b 76 90 117 178 76 138 z "},":":{"ha":374,"x_min":0,"x_max":0,"o":"m 281 79 b 186 175 281 132 242 175 b 93 79 133 175 93 132 b 186 -12 93 29 133 -12 b 281 79 242 -12 281 29 z m 281 493 b 186 589 281 546 242 589 b 93 493 133 589 93 546 b 186 401 93 443 133 401 b 281 493 242 401 281 443 z "},";":{"ha":374,"x_min":0,"x_max":0,"o":"m 76 90 b 111 22 76 63 89 35 l 207 22 b 224 -36 219 7 224 -11 b 39 -286 224 -139 135 -228 b 311 -3 175 -286 311 -157 b 172 178 311 97 261 178 b 76 90 117 178 76 138 z m 281 493 b 186 589 281 546 242 589 b 93 493 133 589 93 546 b 186 401 93 443 133 401 b 281 493 242 401 281 443 z "},"…":{"ha":1013,"x_min":0,"x_max":0,"o":"m 919 79 b 825 175 919 132 881 175 b 732 79 772 175 732 132 b 825 -12 732 29 772 -12 b 919 79 881 -12 919 29 z m 600 79 b 506 175 600 132 561 175 b 413 79 453 175 413 132 b 506 -12 413 29 453 -12 b 600 79 561 -12 600 29 z m 281 79 b 186 175 281 132 242 175 b 93 79 133 175 93 132 b 186 -12 93 29 133 -12 b 281 79 242 -12 281 29 z "},"!":{"ha":431,"x_min":0,"x_max":0,"o":"m 303 874 b 215 972 303 933 264 972 b 128 874 167 972 128 933 l 215 258 z m 310 79 b 215 175 310 132 271 175 b 122 79 163 175 122 132 b 215 -12 122 29 163 -12 b 310 79 271 -12 310 29 z "},"¡":{"ha":425,"x_min":0,"x_max":0,"o":"m 303 86 l 215 701 l 128 86 b 215 -12 128 26 167 -12 b 303 86 264 -12 303 26 z m 310 881 b 215 972 310 931 271 972 b 122 881 163 972 122 931 b 215 785 122 828 163 785 b 310 881 271 785 310 828 z "},"?":{"ha":647,"x_min":0,"x_max":0,"o":"m 246 921 b 460 722 368 921 460 833 b 151 468 460 594 333 506 l 238 367 b 578 690 443 410 578 538 b 254 972 578 856 442 972 b 74 864 143 972 74 925 b 165 775 74 818 115 782 z m 396 79 b 301 175 396 132 357 175 b 208 79 249 175 208 132 b 301 -12 208 29 249 -12 b 396 79 357 -12 396 29 z "},"¿":{"ha":647,"x_min":0,"x_max":0,"o":"m 401 40 b 188 239 279 40 188 128 b 496 493 188 367 314 456 l 410 594 b 69 271 204 551 69 424 b 393 -11 69 106 206 -11 b 574 97 504 -11 574 36 b 482 186 574 143 532 179 z m 251 882 b 346 786 251 829 290 786 b 439 882 399 786 439 829 b 346 974 439 932 399 974 b 251 882 290 974 251 932 z "},"‘":{"ha":361,"x_min":0,"x_max":0,"o":"m 276 714 b 247 771 276 738 265 760 l 171 771 b 157 818 160 783 157 797 b 307 1025 157 904 222 972 b 78 786 194 1025 78 915 b 194 642 78 703 124 642 b 276 714 243 642 276 675 z "},"’":{"ha":361,"x_min":0,"x_max":0,"o":"m 85 929 b 114 872 85 906 96 883 l 190 872 b 204 825 201 860 204 846 b 54 618 204 739 139 671 b 283 857 167 618 283 728 b 167 1001 283 940 238 1001 b 85 929 118 1001 85 968 z "},"“":{"ha":622,"x_min":0,"x_max":0,"o":"m 538 714 b 508 771 538 738 526 760 l 432 771 b 418 818 421 783 418 797 b 568 1025 418 904 483 972 b 339 786 456 1025 339 915 b 456 642 339 703 385 642 b 538 714 504 642 538 675 z m 276 714 b 247 771 276 738 265 760 l 171 771 b 157 818 160 783 157 797 b 307 1025 157 904 222 972 b 78 786 194 1025 78 915 b 194 642 78 703 124 642 b 276 714 243 642 276 675 z "},"”":{"ha":622,"x_min":0,"x_max":0,"o":"m 346 929 b 375 872 346 906 357 883 l 451 872 b 465 825 463 860 465 846 b 315 618 465 739 400 671 b 544 857 428 618 544 728 b 428 1001 544 940 499 1001 b 346 929 379 1001 346 968 z m 85 929 b 114 872 85 906 96 883 l 190 872 b 204 825 201 860 204 846 b 54 618 204 739 139 671 b 283 857 167 618 283 728 b 167 1001 283 940 238 1001 b 85 929 118 1001 85 968 z "},"‚":{"ha":361,"x_min":0,"x_max":0,"o":"m 85 110 b 114 53 85 86 96 64 l 190 53 b 204 6 201 40 204 26 b 54 -201 204 -81 139 -149 b 283 38 167 -201 283 -92 b 167 182 283 121 238 182 b 85 110 118 182 85 149 z "},"„":{"ha":622,"x_min":0,"x_max":0,"o":"m 346 110 b 375 53 346 86 357 64 l 451 53 b 465 6 463 40 465 26 b 315 -201 465 -81 400 -149 b 544 38 428 -201 544 -92 b 428 182 544 121 499 182 b 346 110 379 182 346 149 z m 85 110 b 114 53 85 86 96 64 l 190 53 b 204 6 201 40 204 26 b 54 -201 204 -81 139 -149 b 283 38 167 -201 283 -92 b 167 182 283 121 238 182 b 85 110 118 182 85 149 z "},"‹":{"ha":431,"x_min":0,"x_max":0,"o":"m 69 313 l 361 31 l 215 313 l 361 592 z "},"›":{"ha":431,"x_min":0,"x_max":0,"o":"m 361 313 l 69 592 l 215 313 l 69 31 z "},"«":{"ha":681,"x_min":0,"x_max":0,"o":"m 319 313 l 611 31 l 465 313 l 611 592 z m 69 313 l 361 31 l 215 313 l 361 592 z "},"»":{"ha":681,"x_min":0,"x_max":0,"o":"m 361 313 l 69 592 l 215 313 l 69 31 z m 611 313 l 319 592 l 465 313 l 319 31 z "},"/":{"ha":607,"x_min":0,"x_max":0,"o":"m 482 1069 l 56 -201 l 125 -201 l 551 1069 z "},"\\":{"ha":607,"x_min":0,"x_max":0,"o":"m 125 1069 l 56 1069 l 482 -201 l 551 -201 z "},"|":{"ha":456,"x_min":0,"x_max":0,"o":"m 261 1069 l 194 1069 l 194 -201 l 261 -201 z "},"·":{"ha":390,"x_min":0,"x_max":0,"o":"m 289 347 b 194 443 289 400 250 443 b 101 347 142 443 101 400 b 194 256 101 297 142 256 b 289 347 250 256 289 297 z "},"•":{"ha":581,"x_min":0,"x_max":0,"o":"m 290 544 b 97 351 185 544 97 458 b 290 158 97 246 185 158 b 483 351 397 158 483 246 b 290 544 483 458 397 544 z "},"-":{"ha":560,"x_min":0,"x_max":0,"o":"m 463 392 l 125 392 l 97 311 l 435 311 z "},"–":{"ha":903,"x_min":0,"x_max":0,"o":"m 129 379 l 97 311 l 774 311 l 806 379 z "},"—":{"ha":1444,"x_min":0,"x_max":0,"o":"m 129 379 l 97 311 l 1315 311 l 1347 379 z "},"(":{"ha":563,"x_min":0,"x_max":0,"o":"m 139 396 b 479 -246 139 136 278 -79 b 267 396 356 -56 267 153 b 479 1038 267 639 356 847 b 139 396 278 871 139 656 z "},")":{"ha":563,"x_min":0,"x_max":0,"o":"m 424 396 b 83 1038 424 656 285 871 b 296 396 207 847 296 639 b 83 -246 296 153 207 -56 b 424 396 285 -79 424 136 z "},"[":{"ha":604,"x_min":0,"x_max":0,"o":"m 181 -229 l 507 -229 l 507 -167 l 268 -167 l 268 965 l 507 965 l 507 1028 l 181 1028 z "},"]":{"ha":604,"x_min":0,"x_max":0,"o":"m 424 -229 l 424 1028 l 97 1028 l 97 965 l 336 965 l 336 -167 l 97 -167 l 97 -229 z "},"{":{"ha":613,"x_min":0,"x_max":0,"o":"m 49 397 b 293 247 150 378 293 339 b 197 -57 293 149 197 32 b 400 -233 197 -149 268 -233 b 543 -200 456 -233 515 -214 b 311 -50 400 -193 311 -150 b 364 246 311 14 364 161 b 176 397 364 340 253 383 b 364 549 253 411 364 454 b 311 844 364 633 311 781 b 543 994 311 944 400 988 b 400 1028 515 1008 456 1028 b 197 851 268 1028 197 943 b 293 547 197 763 293 646 b 49 397 293 456 150 417 z "},"}":{"ha":613,"x_min":0,"x_max":0,"o":"m 564 397 b 319 547 463 417 319 456 b 415 851 319 646 415 763 b 213 1028 415 943 344 1028 b 69 994 157 1028 97 1008 b 301 844 213 988 301 944 b 249 549 301 781 249 633 b 436 397 249 454 360 411 b 249 246 360 383 249 340 b 301 -50 249 161 301 14 b 69 -200 301 -150 213 -193 b 213 -233 97 -214 157 -233 b 415 -57 344 -233 415 -149 b 319 247 415 32 319 149 b 564 397 319 339 463 378 z "},"*":{"ha":653,"x_min":0,"x_max":0,"o":"m 574 683 l 396 825 l 574 967 l 361 883 l 326 1110 l 292 883 l 79 967 l 257 825 l 79 683 l 292 765 l 326 540 l 361 765 z "},"†":{"ha":669,"x_min":0,"x_max":0,"o":"m 544 896 l 364 896 l 364 1069 l 306 1069 l 306 896 l 125 896 l 125 838 l 306 838 l 306 456 l 364 456 l 364 838 l 544 838 z "},"‡":{"ha":669,"x_min":0,"x_max":0,"o":"m 544 688 l 364 688 l 364 838 l 544 838 l 544 896 l 364 896 l 364 1069 l 306 1069 l 306 896 l 125 896 l 125 838 l 306 838 l 306 688 l 125 688 l 125 629 l 306 629 l 306 456 l 364 456 l 364 629 l 544 629 z "},"§":{"ha":732,"x_min":0,"x_max":0,"o":"m 321 -231 b 247 -217 297 -231 271 -228 l 247 -74 b 129 -164 185 -74 129 -103 b 301 -281 129 -235 206 -281 b 607 60 492 -281 607 -114 b 536 301 607 144 581 213 l 258 851 b 411 922 296 894 347 922 b 485 908 435 922 461 919 l 485 765 b 603 856 547 765 603 794 b 431 972 603 926 526 972 b 125 632 240 972 125 806 b 196 390 125 547 151 479 l 474 -160 b 321 -231 436 -203 385 -231 z m 233 447 b 182 643 200 515 182 574 b 224 803 182 697 196 756 l 499 244 b 550 49 532 176 550 118 b 508 -111 550 -6 536 -64 z "},"¶":{"ha":872,"x_min":0,"x_max":0,"o":"m 451 958 b 114 668 275 958 114 840 b 451 378 114 496 275 378 l 451 897 l 553 897 l 553 -29 b 369 -229 553 -162 479 -229 b 210 -74 278 -229 210 -164 b 336 56 210 3 271 56 l 336 -60 b 450 21 392 -60 450 -37 b 336 113 450 72 410 113 b 150 -78 236 113 150 31 b 369 -286 150 -201 254 -286 b 617 -32 517 -286 617 -171 l 617 897 l 804 897 l 804 958 z "},"^":{"ha":544,"x_min":0,"x_max":0,"o":"m 272 806 l 503 481 l 319 929 b 272 963 310 951 292 963 b 225 929 253 963 235 951 l 42 481 z "},"~":{"ha":715,"x_min":0,"x_max":0,"o":"m 514 324 l 618 518 b 447 421 553 467 492 421 b 201 451 392 421 249 440 l 97 257 b 268 354 163 308 224 354 b 514 324 324 354 467 335 z "},"_":{"ha":699,"x_min":0,"x_max":0,"o":"m 601 -104 l 125 -104 l 97 -185 l 574 -185 z "},"'":{"ha":269,"x_min":0,"x_max":0,"o":"m 135 549 l 200 971 b 135 1042 200 1001 183 1042 b 69 971 86 1042 69 1001 z "},"\"":{"ha":492,"x_min":0,"x_max":0,"o":"m 357 549 l 422 971 b 357 1042 422 1001 406 1042 b 292 971 308 1042 292 1001 z m 135 549 l 200 971 b 135 1042 200 1001 183 1042 b 69 971 86 1042 69 1001 z "},"@":{"ha":1304,"x_min":0,"x_max":0,"o":"m 853 49 l 853 464 b 718 613 853 561 790 613 b 426 407 603 613 472 519 l 568 407 l 568 526 b 743 425 707 567 743 494 l 743 347 l 594 289 b 435 124 515 258 435 208 b 560 3 435 49 496 3 b 721 81 631 3 688 50 l 744 81 b 890 1 768 40 810 1 b 1221 400 1050 1 1221 160 b 714 878 1221 640 1033 878 b 83 246 342 878 83 569 b 676 -315 83 -140 401 -315 b 1135 -147 858 -315 1024 -246 b 724 -242 1010 -212 861 -242 b 190 267 465 -242 190 -76 b 714 821 190 557 389 821 b 1114 414 990 821 1114 606 b 853 49 1114 201 1010 53 z m 743 306 l 743 133 b 631 83 711 103 675 83 b 549 154 583 83 549 108 b 668 274 549 214 590 242 z "},"©":{"ha":1140,"x_min":0,"x_max":0,"o":"m 83 479 b 571 -14 83 210 303 -14 b 1057 479 838 -14 1057 210 b 571 972 1057 749 838 972 b 83 479 303 972 83 749 z m 139 479 b 571 918 139 719 333 918 b 1001 479 807 918 1001 719 b 571 39 1001 238 807 39 b 139 479 333 39 139 238 z m 800 347 b 625 276 751 303 696 276 b 408 514 513 276 408 363 b 589 728 408 644 493 728 b 783 574 676 728 732 653 l 783 769 l 722 731 b 588 769 690 750 646 769 b 301 471 446 769 301 651 b 575 197 301 301 435 197 b 800 347 686 197 769 265 z "},"®":{"ha":735,"x_min":0,"x_max":0,"o":"m 83 686 b 368 404 83 532 201 404 b 651 686 532 404 651 532 b 368 972 651 844 532 972 b 83 686 201 972 83 844 z m 125 686 b 368 931 125 822 225 931 b 610 686 508 931 610 822 b 368 446 610 554 508 446 b 125 686 225 446 125 554 z m 365 578 l 322 578 l 322 682 l 343 682 l 451 550 l 522 550 l 404 688 b 479 761 447 697 479 722 b 358 840 479 815 428 840 l 221 840 l 221 813 l 263 813 l 263 578 l 221 578 l 221 550 l 365 550 z m 322 813 l 351 813 b 421 761 392 813 421 796 b 351 707 421 722 392 707 l 322 707 z "},"™":{"ha":1261,"x_min":0,"x_max":0,"o":"m 133 958 l 100 976 l 100 815 l 176 917 l 268 917 l 268 568 l 183 568 l 183 526 l 439 526 l 439 568 l 353 568 l 353 917 l 446 917 l 521 815 l 521 976 l 488 958 z m 1036 568 l 965 568 l 965 526 l 1176 526 l 1176 568 l 1121 568 l 1089 915 l 1146 915 l 1146 958 l 971 958 l 878 678 l 786 958 l 606 958 l 606 915 l 663 915 l 631 568 l 575 568 l 575 526 l 746 526 l 746 568 l 675 568 l 707 919 l 856 500 l 1003 919 z "},"#":{"ha":917,"x_min":0,"x_max":0,"o":"m 113 0 l 171 0 l 272 289 l 510 289 l 408 0 l 467 0 l 568 289 l 764 289 l 764 343 l 588 343 l 683 615 l 847 615 l 847 669 l 703 669 l 804 958 l 746 958 l 644 669 l 407 669 l 508 958 l 450 958 l 349 669 l 153 669 l 153 615 l 329 615 l 233 343 l 69 343 l 69 289 l 214 289 z m 292 343 l 388 615 l 625 615 l 529 343 z "},"°":{"ha":449,"x_min":0,"x_max":0,"o":"m 225 578 b 421 775 333 578 421 667 b 225 972 421 883 333 972 b 28 775 117 972 28 883 b 225 578 28 667 117 578 z m 225 647 b 97 775 154 647 97 704 b 225 903 97 846 154 903 b 351 775 296 903 351 844 b 225 647 351 706 296 647 z "},"ƒ":{"ha":785,"x_min":0,"x_max":0,"o":"m 278 82 l 381 375 l 565 375 l 581 431 l 400 431 l 565 903 l 729 814 b 785 900 760 832 785 865 b 693 972 785 935 760 972 b 283 481 521 972 378 808 l 269 431 l 99 431 l 85 375 l 253 375 l 64 -283 l -135 -258 b -144 -322 -140 -279 -144 -301 b -75 -403 -144 -367 -125 -403 b 278 82 79 -403 176 -211 z "},"€":{"ha":868,"x_min":0,"x_max":0,"o":"m 28 374 l 144 374 b 528 -14 175 133 342 -14 b 838 228 692 -14 800 96 b 575 96 771 151 692 96 b 276 374 438 96 317 197 l 504 374 l 524 429 l 267 429 b 263 504 264 453 263 478 b 264 544 263 518 263 532 l 549 544 l 567 600 l 269 600 b 533 906 299 783 407 906 b 814 660 653 906 743 790 l 814 972 l 728 900 b 536 972 685 938 622 972 b 154 600 371 972 204 828 l 28 600 l 28 544 l 144 544 b 139 457 140 517 139 488 b 139 429 139 447 139 439 l 28 429 z "},"$":{"ha":771,"x_min":0,"x_max":0,"o":"m 399 1125 l 388 965 b 371 965 382 965 376 965 b 94 699 210 965 94 843 b 351 447 94 543 226 494 l 325 63 b 69 326 215 86 129 179 l 69 94 b 319 -6 129 39 228 1 l 308 -175 l 361 -175 l 372 -7 b 694 292 553 3 694 122 b 413 560 694 454 546 507 l 435 892 b 660 656 529 860 601 765 l 660 968 l 564 896 b 440 957 536 921 492 946 l 451 1125 z m 365 903 b 383 901 371 903 378 903 l 361 581 b 203 744 274 617 203 660 b 365 903 203 838 271 903 z m 574 238 b 381 57 574 121 485 57 l 378 57 l 403 426 b 574 238 496 389 574 342 z "},"¢":{"ha":629,"x_min":0,"x_max":0,"o":"m 475 449 b 571 531 526 449 571 485 b 400 639 571 592 508 638 l 415 818 l 363 818 l 347 635 b 42 289 178 611 42 469 b 293 -11 42 128 149 8 l 279 -175 l 332 -175 l 346 -14 b 582 186 472 -8 567 76 b 388 88 540 131 471 88 b 354 89 376 88 365 88 l 396 585 z m 151 329 b 343 583 151 457 232 560 l 303 100 b 151 329 211 129 151 208 z "},"£":{"ha":843,"x_min":0,"x_max":0,"o":"m 136 0 b 256 106 186 0 225 40 l 600 -25 b 794 178 708 -11 794 83 b 713 274 794 236 756 274 b 629 214 678 274 642 251 l 731 108 l 718 93 l 274 151 l 390 454 l 576 454 l 592 510 l 411 510 l 569 918 l 733 792 b 797 886 768 810 797 843 b 671 972 797 935 747 972 b 328 628 492 972 381 840 l 299 510 l 151 510 l 138 454 l 285 454 l 208 150 l 54 108 b 136 0 44 38 89 0 z "},"¥":{"ha":964,"x_min":0,"x_max":0,"o":"m 154 314 l 415 314 l 415 61 l 258 61 l 258 0 l 699 0 l 699 61 l 542 61 l 542 314 l 813 314 l 813 369 l 542 369 l 542 483 l 813 483 l 813 539 l 581 539 l 835 897 l 950 897 l 950 958 l 588 958 l 588 897 l 758 897 l 513 542 l 281 897 l 451 897 l 451 958 l 14 958 l 14 897 l 129 897 l 376 539 l 154 539 l 154 483 l 415 483 l 415 369 l 154 369 z "},"฿":{"ha":904,"x_min":0,"x_max":0,"o":"m 49 958 l 49 897 l 192 897 l 192 61 l 49 61 l 49 0 l 463 0 l 463 -175 l 515 -175 l 515 1 b 853 268 717 15 853 121 b 544 506 853 422 676 497 b 796 728 676 524 796 615 b 515 954 796 863 686 936 l 515 1125 l 463 1125 l 463 958 b 431 958 451 958 442 958 z m 417 897 b 463 896 432 897 447 897 l 463 524 b 418 521 449 522 433 521 l 319 521 l 319 897 z m 661 714 b 515 535 661 622 600 561 l 515 888 b 661 714 604 865 661 811 z m 319 61 l 319 463 l 447 463 b 463 463 457 463 453 463 l 463 61 l 458 61 z m 714 269 b 515 65 714 147 633 81 l 515 458 b 714 269 622 443 714 388 z "},"₫":{"ha":828,"x_min":0,"x_max":0,"o":"m 654 201 l 654 796 l 778 796 l 778 851 l 654 851 l 654 1025 l 539 983 l 539 851 l 324 851 l 324 796 l 539 796 l 539 667 b 407 693 493 686 446 693 b 69 361 238 693 69 561 b 332 69 69 190 181 69 b 508 136 401 69 460 100 l 539 136 l 539 57 l 776 138 z m 539 201 b 419 147 522 174 474 147 b 190 394 288 147 190 239 b 397 636 190 565 289 636 b 539 567 465 636 521 606 z m 92 -139 l 764 -139 l 764 -83 l 92 -83 z "},"₣":{"ha":879,"x_min":0,"x_max":0,"o":"m 83 374 l 226 374 l 226 61 l 83 61 l 83 0 l 538 0 l 538 61 l 353 61 l 353 374 l 615 374 l 635 429 l 353 429 l 353 544 l 660 544 l 678 600 l 353 600 l 353 897 l 681 897 l 824 704 l 824 999 l 749 958 l 83 958 l 83 897 l 226 897 l 226 600 l 83 600 l 83 544 l 226 544 l 226 429 l 83 429 z "},"₦":{"ha":1147,"x_min":0,"x_max":0,"o":"m 83 374 l 226 374 l 226 61 l 83 61 l 83 0 l 442 0 l 442 61 l 299 61 l 299 728 l 921 -46 l 921 374 l 1064 374 l 1064 429 l 921 429 l 921 544 l 1064 544 l 1064 600 l 921 600 l 921 897 l 1064 897 l 1064 958 l 706 958 l 706 897 l 849 897 l 849 213 l 267 958 l 113 958 l 226 817 l 226 600 l 83 600 l 83 544 l 226 544 l 226 429 l 83 429 z "},"₧":{"ha":1032,"x_min":0,"x_max":0,"o":"m 83 636 l 226 636 l 226 61 l 83 61 l 83 0 l 538 0 l 538 61 l 353 61 l 353 636 l 732 636 b 439 431 719 513 626 431 l 546 385 b 861 636 688 385 846 483 l 1004 636 l 1004 692 l 861 692 b 464 958 846 874 685 958 l 83 958 l 83 897 l 226 897 l 226 692 l 83 692 z m 353 897 l 469 897 b 732 692 615 897 721 833 l 353 692 z "},"₱":{"ha":1024,"x_min":0,"x_max":0,"o":"m 83 556 l 226 556 l 226 61 l 83 61 l 83 0 l 538 0 l 538 61 l 353 61 l 353 556 l 708 556 b 439 431 669 478 582 431 l 546 385 b 838 556 661 385 786 450 l 996 556 l 996 611 l 857 611 b 863 661 861 626 863 644 b 856 726 863 685 860 706 l 996 726 l 996 782 l 839 782 b 464 958 785 901 644 958 l 83 958 l 83 897 l 226 897 l 226 782 l 83 782 l 83 726 l 226 726 l 226 611 l 83 611 z m 353 897 l 469 897 b 708 782 579 897 667 861 l 353 782 z m 733 667 b 728 611 733 647 732 629 l 353 611 l 353 726 l 728 726 b 733 667 732 708 733 689 z "},"₽":{"ha":917,"x_min":0,"x_max":0,"o":"m 83 296 l 226 296 l 226 61 l 83 61 l 83 0 l 539 0 l 539 61 l 353 61 l 353 296 l 704 296 l 704 351 l 353 351 l 353 467 l 463 467 b 861 719 668 467 861 544 b 463 958 861 893 693 958 l 83 958 l 83 897 l 226 897 l 226 522 l 83 522 l 83 467 l 226 467 l 226 351 l 83 351 z m 353 897 l 461 897 b 721 714 613 897 721 847 b 461 524 721 581 613 524 l 353 524 z "},"₹":{"ha":857,"x_min":0,"x_max":0,"o":"m 69 508 l 69 453 l 225 453 l 607 0 l 768 0 l 372 465 b 639 713 522 494 639 576 b 638 732 639 719 639 726 l 774 732 l 801 788 l 622 788 b 496 903 599 839 551 878 l 774 903 l 801 958 l 69 958 l 69 903 l 244 903 b 488 788 361 903 453 865 l 69 788 l 69 732 l 503 732 b 504 707 504 724 504 715 b 244 508 504 574 396 508 z "},"₺":{"ha":943,"x_min":0,"x_max":0,"o":"m 353 61 l 353 408 l 581 543 l 581 604 l 353 469 l 353 603 l 581 738 l 581 799 l 353 664 l 353 897 l 496 897 l 496 958 l 83 958 l 83 897 l 226 897 l 226 600 l 83 517 l 83 456 l 226 539 l 226 406 l 83 322 l 83 261 l 226 344 l 226 61 l 83 61 l 83 0 l 436 0 b 874 401 729 0 874 154 l 739 401 b 422 61 739 160 639 61 z "},"₩":{"ha":1322,"x_min":0,"x_max":0,"o":"m 69 567 l 242 567 l 453 -57 l 688 524 l 869 -57 l 1081 567 l 1246 567 l 1246 622 l 1100 622 l 1193 897 l 1294 897 l 1294 958 l 974 958 l 974 897 l 1125 897 l 1035 622 l 767 622 l 682 897 l 828 897 l 828 958 l 481 958 l 481 897 l 571 897 l 657 622 l 342 622 l 250 897 l 372 897 l 372 958 l 28 958 l 28 897 l 129 897 l 222 622 l 69 622 z m 488 183 l 360 567 l 639 567 z m 896 201 l 783 567 l 1017 567 z "},"⁰":{"ha":544,"x_min":0,"x_max":0,"o":"m 496 688 b 274 967 496 839 389 967 b 49 688 157 967 49 839 b 274 408 49 535 157 408 b 496 688 389 408 496 535 z m 385 688 b 274 447 385 553 335 447 b 160 688 211 447 160 553 b 274 926 160 822 211 926 b 385 688 335 926 385 822 z "},"¹":{"ha":454,"x_min":0,"x_max":0,"o":"m 179 833 l 179 461 l 65 461 l 65 415 l 400 415 l 400 461 l 288 461 l 288 967 l 35 833 z "},"²":{"ha":464,"x_min":0,"x_max":0,"o":"m 376 415 l 438 511 l 171 511 l 171 524 b 385 817 283 618 385 711 b 236 967 385 900 328 967 b 40 793 143 967 69 901 b 181 876 79 843 118 876 b 286 767 246 876 286 832 b 18 415 286 669 179 574 z "},"³":{"ha":429,"x_min":0,"x_max":0,"o":"m 172 442 l 82 529 b 36 472 53 521 36 496 b 132 408 36 435 75 408 b 389 600 257 408 389 496 b 236 726 389 676 321 714 l 236 736 b 356 865 306 761 356 803 b 236 967 356 919 311 967 b 51 826 140 967 78 897 b 168 888 81 860 124 888 b 246 819 213 888 246 864 b 96 671 246 761 192 722 b 292 554 215 671 292 629 b 172 442 292 488 225 453 z "},"⁴":{"ha":531,"x_min":0,"x_max":0,"o":"m 440 415 l 440 461 l 364 461 l 364 569 l 471 569 l 517 621 l 364 621 l 364 967 l 14 569 l 265 569 l 265 461 l 188 461 l 188 415 z m 265 621 l 113 621 l 265 796 z "},"⁵":{"ha":435,"x_min":0,"x_max":0,"o":"m 140 772 l 158 858 l 344 858 l 383 958 l 146 958 l 83 686 b 289 565 211 701 289 654 b 171 442 289 488 226 451 l 78 535 b 32 475 49 525 32 500 b 131 408 32 436 72 408 b 382 618 257 408 382 497 b 140 772 382 733 269 783 z "},"⁶":{"ha":494,"x_min":0,"x_max":0,"o":"m 251 408 b 440 592 358 408 440 493 b 283 749 440 679 375 749 b 185 711 240 749 210 732 l 172 711 b 450 967 207 821 303 904 b 50 632 222 958 50 806 b 251 408 50 510 138 408 z m 157 611 b 165 686 157 638 160 663 b 218 699 179 693 197 699 b 344 554 289 699 344 638 b 261 447 344 490 314 447 b 157 611 199 447 157 521 z "},"⁷":{"ha":476,"x_min":0,"x_max":0,"o":"m 199 417 l 449 958 l 88 958 l 31 858 l 361 858 l 122 417 z "},"⁸":{"ha":479,"x_min":0,"x_max":0,"o":"m 433 567 b 311 711 433 636 375 676 l 311 728 b 414 836 372 747 414 782 b 242 967 414 911 339 967 b 65 814 140 967 65 893 b 164 685 65 754 111 717 l 164 669 b 46 544 93 642 46 604 b 238 408 46 471 132 408 b 433 567 346 408 433 489 z m 154 849 b 242 931 154 896 189 931 b 335 836 299 931 335 893 b 281 728 335 789 317 757 b 154 849 215 763 154 794 z m 131 556 b 193 668 131 607 150 638 b 336 538 264 631 336 599 b 238 444 336 488 299 444 b 131 556 178 444 131 490 z "},"⁹":{"ha":494,"x_min":0,"x_max":0,"o":"m 243 967 b 54 783 138 967 54 882 b 211 626 54 696 121 626 b 311 665 254 626 285 643 l 322 665 b 44 408 288 554 192 471 b 444 743 274 417 444 571 b 243 967 444 865 358 967 z m 150 821 b 233 928 150 885 182 928 b 338 765 296 928 338 856 b 329 689 338 739 335 714 b 278 676 315 682 297 676 b 150 821 206 676 150 738 z "},"₀":{"ha":544,"x_min":0,"x_max":0,"o":"m 496 63 b 274 342 496 214 389 342 b 49 63 157 342 49 214 b 274 -217 49 -90 157 -217 b 496 63 389 -217 496 -90 z m 385 63 b 274 -178 385 -72 335 -178 b 160 63 211 -178 160 -72 b 274 301 160 197 211 301 b 385 63 335 301 385 197 z "},"₁":{"ha":454,"x_min":0,"x_max":0,"o":"m 179 208 l 179 -164 l 65 -164 l 65 -210 l 400 -210 l 400 -164 l 288 -164 l 288 342 l 35 208 z "},"₂":{"ha":464,"x_min":0,"x_max":0,"o":"m 376 -210 l 438 -114 l 171 -114 l 171 -101 b 385 192 283 -7 385 86 b 236 342 385 275 328 342 b 40 168 143 342 69 276 b 181 251 79 218 118 251 b 286 142 246 251 286 207 b 18 -210 286 44 179 -51 z "},"₃":{"ha":429,"x_min":0,"x_max":0,"o":"m 172 -183 l 82 -96 b 36 -153 53 -104 36 -129 b 132 -217 36 -190 75 -217 b 389 -25 257 -217 389 -129 b 236 101 389 51 321 89 l 236 111 b 356 240 306 136 356 178 b 236 342 356 294 311 342 b 51 201 140 342 78 272 b 168 263 81 235 124 263 b 246 194 213 263 246 239 b 96 46 246 136 192 97 b 292 -71 215 46 292 4 b 172 -183 292 -137 225 -172 z "},"₄":{"ha":531,"x_min":0,"x_max":0,"o":"m 440 -210 l 440 -164 l 364 -164 l 364 -56 l 471 -56 l 517 -4 l 364 -4 l 364 342 l 14 -56 l 265 -56 l 265 -164 l 188 -164 l 188 -210 z m 265 -4 l 113 -4 l 265 171 z "},"₅":{"ha":435,"x_min":0,"x_max":0,"o":"m 140 147 l 158 233 l 344 233 l 383 333 l 146 333 l 83 61 b 289 -60 211 76 289 29 b 171 -183 289 -137 226 -174 l 78 -90 b 32 -150 49 -100 32 -125 b 131 -217 32 -189 72 -217 b 382 -7 257 -217 382 -128 b 140 147 382 108 269 158 z "},"₆":{"ha":494,"x_min":0,"x_max":0,"o":"m 251 -217 b 440 -33 358 -217 440 -132 b 283 124 440 54 375 124 b 185 86 240 124 210 107 l 172 86 b 450 342 207 196 303 279 b 50 7 222 333 50 181 b 251 -217 50 -115 138 -217 z m 157 -14 b 165 61 157 13 160 38 b 218 74 179 68 197 74 b 344 -71 289 74 344 13 b 261 -178 344 -135 314 -178 b 157 -14 199 -178 157 -104 z "},"₇":{"ha":476,"x_min":0,"x_max":0,"o":"m 199 -208 l 449 333 l 88 333 l 31 233 l 361 233 l 122 -208 z "},"₈":{"ha":479,"x_min":0,"x_max":0,"o":"m 433 -58 b 311 86 433 11 375 51 l 311 103 b 414 211 372 122 414 157 b 242 342 414 286 339 342 b 65 189 140 342 65 268 b 164 60 65 129 111 92 l 164 44 b 46 -81 93 17 46 -21 b 238 -217 46 -154 132 -217 b 433 -58 346 -217 433 -136 z m 154 224 b 242 306 154 271 189 306 b 335 211 299 306 335 268 b 281 103 335 164 317 132 b 154 224 215 138 154 169 z m 131 -69 b 193 43 131 -18 150 13 b 336 -87 264 6 336 -26 b 238 -181 336 -137 299 -181 b 131 -69 178 -181 131 -135 z "},"₉":{"ha":494,"x_min":0,"x_max":0,"o":"m 243 342 b 54 158 138 342 54 257 b 211 1 54 71 121 1 b 311 40 254 1 285 18 l 322 40 b 44 -217 288 -71 192 -154 b 444 118 274 -208 444 -54 b 243 342 444 240 358 342 z m 150 196 b 233 303 150 260 182 303 b 338 140 296 303 338 231 b 329 64 338 114 335 89 b 278 51 315 57 297 51 b 150 196 206 51 150 113 z "},"⁄":{"ha":235,"x_min":0,"x_max":0,"o":"m 490 958 l 393 958 l 372 893 l -256 0 l -158 0 l -137 65 z "},"½":{"ha":1108,"x_min":0,"x_max":0,"o":"m 179 833 l 179 461 l 65 461 l 65 415 l 400 415 l 400 461 l 288 461 l 288 967 l 35 833 z m 938 958 l 840 958 l 819 893 l 192 0 l 289 0 l 310 65 z m 1021 0 l 1082 96 l 815 96 l 815 108 b 1029 401 928 203 1029 296 b 881 551 1029 485 972 551 b 685 378 788 551 714 486 b 825 461 724 428 763 461 b 931 351 890 461 931 417 b 663 0 931 254 824 158 z "},"¼":{"ha":1058,"x_min":0,"x_max":0,"o":"m 938 958 l 840 958 l 819 893 l 192 0 l 289 0 l 310 65 z m 179 833 l 179 461 l 65 461 l 65 415 l 400 415 l 400 461 l 288 461 l 288 967 l 35 833 z m 968 0 l 968 46 l 892 46 l 892 154 l 999 154 l 1044 206 l 892 206 l 892 551 l 542 154 l 793 154 l 793 46 l 715 46 l 715 0 z m 793 206 l 640 206 l 793 381 z "},"¾":{"ha":1015,"x_min":0,"x_max":0,"o":"m 925 0 l 925 46 l 849 46 l 849 154 l 956 154 l 1001 206 l 849 206 l 849 551 l 499 154 l 750 154 l 750 46 l 672 46 l 672 0 z m 750 206 l 597 206 l 750 381 z m 894 958 l 797 958 l 776 893 l 149 0 l 246 0 l 267 65 z m 172 442 l 82 529 b 36 472 53 521 36 496 b 132 408 36 435 75 408 b 389 600 257 408 389 496 b 236 726 389 676 321 714 l 236 736 b 356 865 306 761 356 803 b 236 967 356 919 311 967 b 51 826 140 967 78 897 b 168 888 81 860 124 888 b 246 819 213 888 246 864 b 96 671 246 761 192 722 b 292 554 215 671 292 629 b 172 442 292 488 225 453 z "},"⅓":{"ha":1058,"x_min":0,"x_max":0,"o":"m 938 958 l 840 958 l 819 893 l 192 0 l 289 0 l 310 65 z m 179 833 l 179 461 l 65 461 l 65 415 l 400 415 l 400 461 l 288 461 l 288 967 l 35 833 z m 801 26 l 711 114 b 665 57 682 106 665 81 b 761 -7 665 19 704 -7 b 1018 185 886 -7 1018 81 b 865 311 1018 261 950 299 l 865 321 b 985 450 935 346 985 388 b 865 551 985 504 940 551 b 681 411 769 551 707 482 b 797 472 710 444 753 472 b 875 404 842 472 875 449 b 725 256 875 346 821 307 b 921 139 844 256 921 214 b 801 26 921 72 854 38 z "},"⅔":{"ha":1085,"x_min":0,"x_max":0,"o":"m 964 958 l 867 958 l 846 893 l 218 0 l 315 0 l 336 65 z m 828 26 l 738 114 b 692 57 708 106 692 81 b 788 -7 692 19 731 -7 b 1044 185 913 -7 1044 81 b 892 311 1044 261 976 299 l 892 321 b 1011 450 961 346 1011 388 b 892 551 1011 504 967 551 b 707 411 796 551 733 482 b 824 472 736 444 779 472 b 901 404 868 472 901 449 b 751 256 901 346 847 307 b 947 139 871 256 947 214 b 828 26 947 72 881 38 z m 376 415 l 438 511 l 171 511 l 171 524 b 385 817 283 618 385 711 b 236 967 385 900 328 967 b 40 793 143 967 69 901 b 181 876 79 843 118 876 b 286 767 246 876 286 832 b 18 415 286 669 179 574 z "},"⅛":{"ha":1108,"x_min":0,"x_max":0,"o":"m 1063 151 b 940 296 1063 221 1004 261 l 940 313 b 1043 421 1001 332 1043 367 b 871 551 1043 496 968 551 b 694 399 769 551 694 478 b 793 269 694 339 740 301 l 793 254 b 675 129 722 226 675 189 b 867 -7 675 56 761 -7 b 1063 151 975 -7 1063 74 z m 783 433 b 871 515 783 481 818 515 b 964 421 928 515 964 478 b 910 313 964 374 946 342 b 783 433 844 347 783 379 z m 760 140 b 822 253 760 192 779 222 b 965 122 893 215 965 183 b 867 29 965 72 928 29 b 760 140 807 29 760 75 z m 938 958 l 840 958 l 819 893 l 192 0 l 289 0 l 310 65 z m 179 833 l 179 461 l 65 461 l 65 415 l 400 415 l 400 461 l 288 461 l 288 967 l 35 833 z "},"⅜":{"ha":1065,"x_min":0,"x_max":0,"o":"m 1019 151 b 897 296 1019 221 961 261 l 897 313 b 1000 421 958 332 1000 367 b 828 551 1000 496 925 551 b 651 399 726 551 651 478 b 750 269 651 339 697 301 l 750 254 b 632 129 679 226 632 189 b 824 -7 632 56 718 -7 b 1019 151 932 -7 1019 74 z m 740 433 b 828 515 740 481 775 515 b 921 421 885 515 921 478 b 867 313 921 374 903 342 b 740 433 801 347 740 379 z m 717 140 b 779 253 717 192 736 222 b 922 122 850 215 922 183 b 824 29 922 72 885 29 b 717 140 764 29 717 75 z m 894 958 l 797 958 l 776 893 l 149 0 l 246 0 l 267 65 z m 172 442 l 82 529 b 36 472 53 521 36 496 b 132 408 36 435 75 408 b 389 600 257 408 389 496 b 236 726 389 676 321 714 l 236 736 b 356 865 306 761 356 803 b 236 967 356 919 311 967 b 51 826 140 967 78 897 b 168 888 81 860 124 888 b 246 819 213 888 246 864 b 96 671 246 761 192 722 b 292 554 215 671 292 629 b 172 442 292 488 225 453 z "},"⅝":{"ha":1060,"x_min":0,"x_max":0,"o":"m 889 958 l 792 958 l 771 893 l 143 0 l 240 0 l 261 65 z m 1014 151 b 892 296 1014 221 956 261 l 892 313 b 994 421 953 332 994 367 b 822 551 994 496 919 551 b 646 399 721 551 646 478 b 744 269 646 339 692 301 l 744 254 b 626 129 674 226 626 189 b 818 -7 626 56 713 -7 b 1014 151 926 -7 1014 74 z m 735 433 b 822 515 735 481 769 515 b 915 421 879 515 915 478 b 861 313 915 374 897 342 b 735 433 796 347 735 379 z m 711 140 b 774 253 711 192 731 222 b 917 122 844 215 917 183 b 818 29 917 72 879 29 b 711 140 758 29 711 75 z m 140 772 l 158 858 l 344 858 l 383 958 l 146 958 l 83 686 b 289 565 211 701 289 654 b 171 442 289 488 226 451 l 78 535 b 32 475 49 525 32 500 b 131 408 32 436 72 408 b 382 618 257 408 382 497 b 140 772 382 733 269 783 z "},"⅞":{"ha":1011,"x_min":0,"x_max":0,"o":"m 965 151 b 843 296 965 221 907 261 l 843 313 b 946 421 904 332 946 367 b 774 551 946 496 871 551 b 597 399 672 551 597 478 b 696 269 597 339 643 301 l 696 254 b 578 129 625 226 578 189 b 769 -7 578 56 664 -7 b 965 151 878 -7 965 74 z m 686 433 b 774 515 686 481 721 515 b 867 421 831 515 867 478 b 813 313 867 374 849 342 b 686 433 747 347 686 379 z m 663 140 b 725 253 663 192 682 222 b 868 122 796 215 868 183 b 769 29 868 72 831 29 b 663 140 710 29 663 75 z m 840 958 l 743 958 l 722 893 l 94 0 l 192 0 l 213 65 z m 199 417 l 449 958 l 88 958 l 31 858 l 361 858 l 122 417 z "},"%":{"ha":968,"x_min":0,"x_max":0,"o":"m 253 575 b 447 774 358 575 447 664 b 253 972 447 883 358 972 b 56 774 144 972 56 883 b 253 575 56 664 144 575 z m 875 958 l 767 958 l 746 893 l 92 0 l 200 0 l 221 65 z m 253 643 b 125 774 182 643 125 701 b 253 906 125 846 182 906 b 378 774 322 906 378 846 b 253 643 378 701 322 643 z m 718 383 b 521 185 610 383 521 294 b 718 -14 521 75 610 -14 b 913 185 824 -14 913 75 b 718 383 913 294 824 383 z m 718 317 b 843 185 788 317 843 257 b 718 54 843 113 788 54 b 590 185 647 54 590 113 b 718 317 590 257 647 317 z "},"+":{"ha":833,"x_min":0,"x_max":0,"o":"m 61 435 l 381 435 l 381 115 l 453 115 l 453 435 l 772 435 l 772 508 l 453 508 l 453 828 l 381 828 l 381 508 l 61 508 z "},"−":{"ha":833,"x_min":0,"x_max":0,"o":"m 61 435 l 772 435 l 772 508 l 61 508 z "},"×":{"ha":833,"x_min":0,"x_max":0,"o":"m 111 199 l 167 143 l 417 393 l 667 143 l 722 199 l 472 449 l 722 699 l 667 754 l 417 504 l 167 754 l 111 699 l 361 449 z "},"÷":{"ha":833,"x_min":0,"x_max":0,"o":"m 419 668 b 508 758 468 668 508 708 b 419 849 508 808 468 849 b 329 758 369 849 329 808 b 419 668 329 708 369 668 z m 61 435 l 772 435 l 772 508 l 61 508 z m 419 94 b 508 185 468 94 508 135 b 419 275 508 235 468 275 b 329 185 369 275 329 235 b 419 94 329 135 369 94 z "},"=":{"ha":833,"x_min":0,"x_max":0,"o":"m 61 575 l 772 575 l 772 649 l 61 649 z m 61 292 l 772 292 l 772 365 l 61 365 z "},"<":{"ha":832,"x_min":0,"x_max":0,"o":"m 106 433 l 726 122 l 726 213 l 193 468 l 726 726 l 726 815 l 106 507 z "},">":{"ha":832,"x_min":0,"x_max":0,"o":"m 726 433 l 726 507 l 106 815 l 106 726 l 639 468 l 106 213 l 106 122 z "},"↑":{"ha":925,"x_min":0,"x_max":0,"o":"m 494 760 l 494 -28 l 431 -28 l 431 760 l 83 564 l 463 1025 l 842 564 z "},"↓":{"ha":925,"x_min":0,"x_max":0,"o":"m 494 224 l 494 1011 l 431 1011 l 431 224 l 83 419 l 463 -42 l 842 419 z "},"←":{"ha":1219,"x_min":0,"x_max":0,"o":"m 349 367 l 1136 367 l 1136 431 l 349 431 l 544 778 l 83 399 l 544 19 z "},"→":{"ha":1219,"x_min":0,"x_max":0,"o":"m 871 367 l 83 367 l 83 431 l 871 431 l 675 778 l 1136 399 l 675 19 z "},"↕":{"ha":925,"x_min":0,"x_max":0,"o":"m 494 85 l 494 818 l 842 622 l 463 1083 l 83 622 l 431 818 l 431 85 l 83 281 l 463 -181 l 842 281 z "},"↔":{"ha":1611,"x_min":0,"x_max":0,"o":"m 349 367 l 1263 367 l 1067 19 l 1528 399 l 1067 778 l 1263 431 l 349 431 l 544 778 l 83 399 l 544 19 z "},"↖":{"ha":1153,"x_min":0,"x_max":0,"o":"m 249 763 l 132 393 l 83 972 l 663 924 l 293 807 l 1069 31 l 1025 -14 z "},"↗":{"ha":1153,"x_min":0,"x_max":0,"o":"m 904 763 l 1021 393 l 1069 972 l 490 924 l 860 807 l 83 31 l 128 -14 z "},"↘":{"ha":1153,"x_min":0,"x_max":0,"o":"m 904 196 l 1021 565 l 1069 -14 l 490 35 l 860 151 l 83 928 l 128 972 z "},"↙":{"ha":1153,"x_min":0,"x_max":0,"o":"m 249 196 l 132 565 l 83 -14 l 663 35 l 293 151 l 1069 928 l 1025 972 z "},"́":{"ha":0,"x_min":0,"x_max":0,"o":"m 121 1049 l -18 1049 l -121 683 z "},"̆":{"ha":0,"x_min":0,"x_max":0,"o":"m 0 803 b -168 1067 -82 803 -131 904 b 0 711 -196 883 -125 711 b 168 1067 125 711 196 883 b 0 803 131 904 82 803 z "},"̌":{"ha":0,"x_min":0,"x_max":0,"o":"m 0 825 l -186 1088 l -47 722 l 47 722 l 186 1088 z "},"̧":{"ha":0,"x_min":0,"x_max":0,"o":"m -62 -371 b 143 -210 24 -371 143 -292 b 17 -79 143 -139 81 -107 l 26 25 l -75 -144 b 65 -247 1 -164 65 -196 b -21 -337 65 -292 17 -331 l -78 -257 b -142 -315 -112 -257 -142 -281 b -62 -371 -142 -347 -111 -371 z "},"̂":{"ha":0,"x_min":0,"x_max":0,"o":"m 0 946 l 186 683 l 47 1049 l -47 1049 l -186 683 z "},"̦":{"ha":0,"x_min":0,"x_max":0,"o":"m -74 -164 b -46 -219 -74 -187 -64 -208 l 32 -219 b -108 -372 25 -271 -29 -333 b 110 -193 4 -372 110 -290 b 11 -90 110 -139 74 -90 b -74 -164 -42 -90 -74 -126 z "},"̒":{"ha":0,"x_min":0,"x_max":0,"o":"m 75 819 b 47 875 75 843 65 864 l -31 875 b 110 1028 -24 926 31 989 b -108 849 -3 1028 -108 946 b -10 746 -108 794 -72 746 b 75 819 43 746 75 782 z "},"̈":{"ha":0,"x_min":0,"x_max":0,"o":"m 128 804 b 207 881 172 804 207 838 b 128 957 207 924 172 957 b 50 881 83 957 50 924 b 128 804 50 838 83 804 z m -129 804 b -50 881 -85 804 -50 838 b -129 957 -50 924 -85 957 b -207 881 -174 957 -207 924 b -129 804 -207 838 -174 804 z "},"̇":{"ha":0,"x_min":0,"x_max":0,"o":"m 0 813 b 85 896 47 813 85 850 b 0 979 85 942 47 979 b -85 896 -47 979 -85 942 b 0 813 -85 850 -47 813 z "},"̀":{"ha":0,"x_min":0,"x_max":0,"o":"m -121 1049 l 121 683 l 18 1049 z "},"̋":{"ha":0,"x_min":0,"x_max":0,"o":"m 17 1049 l -108 1049 l -211 683 z m 211 1049 l 86 1049 l -17 683 z "},"̄":{"ha":0,"x_min":0,"x_max":0,"o":"m -143 886 l -203 811 l 143 811 l 203 886 z "},"̨":{"ha":0,"x_min":0,"x_max":0,"o":"m 117 38 b -125 -262 -3 -35 -125 -167 b -17 -371 -125 -333 -76 -371 b 117 -297 33 -371 69 -342 l 54 -297 b -40 -218 -11 -297 -40 -272 b 126 21 -40 -142 43 -39 z "},"̊":{"ha":0,"x_min":0,"x_max":0,"o":"m 0 1015 b -139 876 -76 1015 -139 953 b 0 739 -139 801 -76 739 b 139 876 76 739 139 801 b 0 1015 139 953 76 1015 z m 0 963 b 86 876 49 963 86 925 b 0 792 86 829 49 792 b -86 876 -49 792 -86 829 b 0 963 -86 925 -49 963 z "},"̃":{"ha":0,"x_min":0,"x_max":0,"o":"m 142 793 l 246 1021 b 72 894 181 951 117 894 l -143 960 l -247 732 b -74 858 -182 801 -118 858 z "}}}
